<?xml version="1.0" encoding="UTF-8" standalone="no"?>
<!-- Created with Inkscape (http://www.inkscape.org/) -->

<svg
   width="543.55176mm"
   height="349.60709mm"
   viewBox="0 0 543.55176 349.60708"
   version="1.1"
   id="svg3269"
   inkscape:version="1.2.2 (b0a8486541, 2022-12-01)"
   sodipodi:docname="workflow.svg"
   xml:space="preserve"
   inkscape:export-filename="packit.dev/static/workflow.png"
   inkscape:export-xdpi="96"
   inkscape:export-ydpi="96"
   xmlns:inkscape="http://www.inkscape.org/namespaces/inkscape"
   xmlns:sodipodi="http://sodipodi.sourceforge.net/DTD/sodipodi-0.dtd"
   xmlns="http://www.w3.org/2000/svg"
   xmlns:svg="http://www.w3.org/2000/svg"
   xmlns:rdf="http://www.w3.org/1999/02/22-rdf-syntax-ns#"
   xmlns:cc="http://creativecommons.org/ns#"
   xmlns:dc="http://purl.org/dc/elements/1.1/"><defs
     id="defs3263" /><sodipodi:namedview
     id="base"
     pagecolor="#ffffff"
     bordercolor="#666666"
     borderopacity="1.0"
     inkscape:pageopacity="0.0"
     inkscape:pageshadow="2"
     inkscape:zoom="0.60544865"
     inkscape:cx="341.89522"
     inkscape:cy="379.88358"
     inkscape:document-units="mm"
     inkscape:current-layer="layer1"
     showgrid="false"
     inkscape:window-width="1920"
     inkscape:window-height="1011"
     inkscape:window-x="0"
     inkscape:window-y="0"
     inkscape:window-maximized="1"
     inkscape:showpageshadow="2"
     inkscape:pagecheckerboard="0"
     inkscape:deskcolor="#d1d1d1" /><metadata
     id="metadata3266"><rdf:RDF><cc:Work
         rdf:about=""><dc:format>image/svg+xml</dc:format><dc:type
           rdf:resource="http://purl.org/dc/dcmitype/StillImage" /></cc:Work></rdf:RDF></metadata><g
     inkscape:label="Vrstva 1"
     inkscape:groupmode="layer"
     id="layer1"
     transform="translate(-728.92173,-138.87195)"><rect
       style="opacity:1;fill:#343a40;fill-opacity:1;stroke:#343a40;stroke-width:19.4649;stroke-linecap:round;stroke-linejoin:round;stroke-dasharray:none;stroke-opacity:1;paint-order:fill markers stroke"
       id="rect932"
       width="524.08685"
       height="330.14218"
       x="738.65417"
       y="148.6044" /><g
       id="g3930"
       transform="translate(877.42182,-12.428123)"><rect
         style="fill:none;stroke:#ffffff;stroke-width:2;stroke-linejoin:round;stroke-miterlimit:4;stroke-dasharray:none;stroke-opacity:1;paint-order:normal"
         id="rect1458"
         width="85.100708"
         height="16.994558"
         x="275.61197"
         y="316.0108" /><text
         xml:space="preserve"
         style="font-style:normal;font-variant:normal;font-weight:bold;font-stretch:normal;font-size:7.03021px;line-height:1.25;font-family:sans-serif;-inkscape-font-specification:'sans-serif, Bold';font-variant-ligatures:normal;font-variant-caps:normal;font-variant-numeric:normal;font-feature-settings:normal;text-align:start;letter-spacing:0px;word-spacing:0px;writing-mode:lr-tb;text-anchor:start;fill:#ffffff;fill-opacity:1;stroke:none;stroke-width:2;stroke-miterlimit:4;stroke-dasharray:none"
         x="292.44788"
         y="326.24506"
         id="text1462"><tspan
           sodipodi:role="line"
           x="292.44788"
           y="326.24506"
           style="font-style:normal;font-variant:normal;font-weight:bold;font-stretch:normal;font-size:7.03021px;font-family:sans-serif;-inkscape-font-specification:'sans-serif, Bold';font-variant-ligatures:normal;font-variant-caps:normal;font-variant-numeric:normal;font-feature-settings:normal;text-align:start;writing-mode:lr-tb;text-anchor:start;fill:#ffffff;stroke-width:2;stroke-miterlimit:4;stroke-dasharray:none"
           id="tspan1460">pagure dist-git</tspan></text><path
         sodipodi:nodetypes="ccccsccccscsscssccccsccccccscscccccc"
         inkscape:connector-curvature="0"
         id="path1577"
         d="m 282.14897,328.32791 c -1.85542,-0.65477 -3.04841,-2.78406 -2.62354,-4.68261 0.35808,-1.60005 1.70623,-2.95578 3.34098,-3.35976 0.93853,-0.23194 2.40895,-0.10553 3.28605,0.28242 1.3519,0.59802 3.08907,2.69691 3.08907,3.73231 0,0.37373 -1.03768,1.32543 -2.11941,1.94381 -0.47798,0.27325 -0.98709,0.70751 -1.16287,0.99193 -0.63127,1.02141 -2.49586,1.55574 -3.81028,1.0919 z m 2.41095,-0.72484 c 0.88636,-0.42908 1.30746,-1.14426 1.20564,-2.04759 -0.1504,-1.33432 -1.57411,-2.01366 -2.42884,-1.15892 -0.20158,0.20158 -0.36651,0.47477 -0.36651,0.60708 0,0.37772 0.28702,0.81822 0.53312,0.81822 0.18215,0 0.19224,-0.0593 0.0541,-0.31753 -0.42139,-0.7874 0.57826,-1.47866 1.32841,-0.91859 1.29457,0.96654 0.27942,2.72929 -1.57176,2.72929 -1.22582,0 -2.02485,-0.53562 -2.50177,-1.67706 -0.47407,-1.13462 -0.19541,-2.42948 0.7198,-3.34471 1.83239,-1.83237 5.22348,-0.96244 6.36929,1.63394 0.25472,0.5772 0.35729,0.68498 0.52188,0.54837 0.56907,-0.47229 -0.9819,-2.54594 -2.45586,-3.28349 -2.61567,-1.30884 -5.8673,0.50881 -5.85409,3.27242 0.0117,2.44841 2.39598,4.13129 4.44666,3.13857 z m 2.98702,0.15968 c -0.84038,-0.73786 -0.79888,-0.91124 0.42106,-1.75935 1.06433,-0.73993 1.08441,-0.74673 1.54593,-0.52321 0.45453,0.22014 1.7534,1.5013 1.63852,1.61618 -0.0315,0.0315 -0.48034,-0.0744 -0.9974,-0.23532 -1.00636,-0.31322 -1.66011,-0.37573 -1.66011,-0.15875 0,0.20066 0.9758,1.01789 1.37138,1.14851 l 0.34577,0.11418 -0.37329,0.10813 c -0.20531,0.0595 -0.69012,0.11479 -1.07735,0.12297 -0.58137,0.0123 -0.79302,-0.0632 -1.21451,-0.43329 z"
         style="fill:#ffffff;stroke-width:2;stroke-miterlimit:4;stroke-dasharray:none" /></g><g
       id="g3936"
       transform="translate(759.43322,39.85303)"><rect
         y="316.0108"
         x="380.85974"
         height="16.994558"
         width="73.073578"
         id="rect1585"
         style="fill:none;stroke:#ffffff;stroke-width:2;stroke-linejoin:round;stroke-miterlimit:4;stroke-dasharray:none;stroke-opacity:1;paint-order:normal" /><text
         id="text1589"
         y="326.4201"
         x="399.67761"
         style="font-style:normal;font-variant:normal;font-weight:bold;font-stretch:normal;font-size:7.03021px;line-height:1.25;font-family:sans-serif;-inkscape-font-specification:'sans-serif, Bold';font-variant-ligatures:normal;font-variant-caps:normal;font-variant-numeric:normal;font-feature-settings:normal;text-align:start;letter-spacing:0px;word-spacing:0px;writing-mode:lr-tb;text-anchor:start;fill:#ffffff;fill-opacity:1;stroke:none;stroke-width:2;stroke-miterlimit:4;stroke-dasharray:none"
         xml:space="preserve"><tspan
           id="tspan1587"
           style="font-style:normal;font-variant:normal;font-weight:bold;font-stretch:normal;font-size:7.03021px;font-family:sans-serif;-inkscape-font-specification:'sans-serif, Bold';font-variant-ligatures:normal;font-variant-caps:normal;font-variant-numeric:normal;font-feature-settings:normal;text-align:start;writing-mode:lr-tb;text-anchor:start;fill:#ffffff;stroke-width:2;stroke-miterlimit:4;stroke-dasharray:none"
           y="326.4201"
           x="399.67761"
           sodipodi:role="line">build system</tspan></text><path
         inkscape:connector-curvature="0"
         id="path1610"
         d="m 384.9584,329.04951 c 0.64373,-2.1649 0.79865,-5.08962 0.39683,-7.49172 -0.19617,-1.17265 -0.19644,-1.75637 -9.3e-4,-1.95188 0.27708,-0.27708 0.69618,0.86259 0.89516,2.43422 0.0767,0.60561 0.17939,0.533 1.21657,-0.8599 0.62305,-0.83674 1.20229,-1.52135 1.2872,-1.52135 0.16731,0 -0.3661,0.8604 -1.54188,2.48709 -1.05338,1.45735 -0.95761,2.2079 0.59856,4.69096 0.95067,1.51691 1.26193,2.22769 1.06275,2.42687 -0.34183,0.34183 -0.25844,0.4294 -1.55716,-1.63501 l -1.06154,-1.68738 -0.33391,1.49207 c -0.18365,0.82063 -0.51042,1.63855 -0.72615,1.81759 -0.32879,0.27288 -0.36688,0.24028 -0.2355,-0.20156 z m 5.62559,-0.45017 c -0.60829,-0.86845 -0.0801,-1.16297 0.85098,-0.47455 1.55664,1.15087 2.16551,-0.0498 2.17198,-4.28311 0.001,-0.82816 0.13226,-1.58606 0.2911,-1.68423 0.20409,-0.12613 0.2623,0.69109 0.19844,2.78596 -0.0875,2.87042 -0.11392,2.98468 -0.83273,3.60246 -0.94589,0.81293 -2.13125,0.83658 -2.67977,0.0535 z m 4.98992,-1.62039 c -0.24912,-0.64919 0.0108,-4.76099 0.30713,-4.85899 0.19747,-0.0653 0.24902,0.56821 0.16471,2.02458 -0.10418,1.79954 -0.0567,2.14499 0.31465,2.28747 0.33916,0.13015 0.36916,0.25 0.13362,0.53381 -0.38376,0.4624 -0.74573,0.46757 -0.92011,0.0131 z m -7.3651,-0.72579 c -0.37674,-0.44773 -0.68498,-1.04895 -0.68498,-1.33606 0,-1.37378 1.52444,-2.87697 2.91763,-2.87697 0.30946,0 0.92537,0.36271 1.36868,0.80602 0.6963,0.6963 0.78483,0.93942 0.6503,1.78594 -0.20698,1.3024 -1.44817,2.43512 -2.66831,2.43512 -0.67833,0 -1.0661,-0.19937 -1.58332,-0.81405 z m 2.96032,-0.12699 c 0.76873,-0.53845 0.80033,-2.02166 0.0589,-2.76313 -0.59252,-0.59251 -2.08984,-0.71474 -2.59292,-0.21166 -0.7364,0.7364 -0.21755,2.70047 0.82428,3.12023 0.83031,0.33455 1.05132,0.31575 1.70977,-0.14544 z m 2.30782,-4.87979 c 0.0899,-0.14552 0.28259,-0.26459 0.42811,-0.26459 0.14552,0 0.191,0.11907 0.10106,0.26459 -0.0899,0.14552 -0.28258,0.26458 -0.4281,0.26458 -0.14552,0 -0.191,-0.11906 -0.10107,-0.26458 z m 1.85209,0 c 0.0899,-0.14552 0.28258,-0.26459 0.4281,-0.26459 0.14552,0 0.191,0.11907 0.10106,0.26459 -0.0899,0.14552 -0.28258,0.26458 -0.4281,0.26458 -0.14552,0 -0.191,-0.11906 -0.10106,-0.26458 z"
         style="fill:#ffffff;stroke-width:2;stroke-miterlimit:4;stroke-dasharray:none" /></g><g
       id="g1331"
       transform="translate(679.79718,22.901401)"><rect
         y="389.47177"
         x="470.46747"
         height="16.994558"
         width="48.356609"
         id="rect1639"
         style="fill:none;stroke:#ffffff;stroke-width:2;stroke-linejoin:round;stroke-miterlimit:4;stroke-dasharray:none;stroke-opacity:1;paint-order:normal" /><text
         id="text1643"
         y="400.58994"
         x="492.14175"
         style="font-style:normal;font-variant:normal;font-weight:bold;font-stretch:normal;font-size:7.03021px;line-height:1.25;font-family:sans-serif;-inkscape-font-specification:'sans-serif, Bold';font-variant-ligatures:normal;font-variant-caps:normal;font-variant-numeric:normal;font-feature-settings:normal;text-align:start;letter-spacing:0px;word-spacing:0px;writing-mode:lr-tb;text-anchor:start;fill:#ffffff;fill-opacity:1;stroke:none;stroke-width:2;stroke-miterlimit:4;stroke-dasharray:none"
         xml:space="preserve"><tspan
           id="tspan1641"
           style="font-style:normal;font-variant:normal;font-weight:bold;font-stretch:normal;font-size:7.03021px;font-family:sans-serif;-inkscape-font-specification:'sans-serif, Bold';font-variant-ligatures:normal;font-variant-caps:normal;font-variant-numeric:normal;font-feature-settings:normal;text-align:start;writing-mode:lr-tb;text-anchor:start;fill:#ffffff;stroke-width:2;stroke-miterlimit:4;stroke-dasharray:none"
           y="400.58994"
           x="492.14175"
           sodipodi:role="line">Bodhi </tspan></text><path
         sodipodi:nodetypes="cscccscsccscccccccsscccscccscccccccccc"
         inkscape:connector-curvature="0"
         id="path1702"
         d="m 480.97158,404.03865 c -0.30002,-0.18801 -0.61053,-0.44547 -0.69002,-0.57216 -0.0795,-0.12668 -0.52447,-0.32873 -0.98886,-0.44901 -2.00534,-0.5194 -3.20696,-2.23833 -2.95239,-4.22344 0.22746,-1.77353 0.68977,-3.24091 1.00165,-3.17921 0.10286,0.0203 0.21273,-0.11826 0.24417,-0.30801 0.11444,-0.69056 0.62438,-2.32873 0.72378,-2.32513 0.0561,0.002 0.45992,0.51024 0.89729,1.12935 l 0.79521,1.12563 0.46307,-0.9465 c 0.27263,-0.5572 0.85637,-1.30593 1.41928,-1.8204 l 0.95618,-0.8739 0.49381,0.35162 c 0.64476,0.45912 1.66856,1.65314 2.05277,2.39407 l 0.30453,0.58729 0.74601,-0.98809 c 0.73589,-0.97469 0.74897,-0.98265 0.96385,-0.58729 0.11982,0.22044 0.31316,0.92741 0.42965,1.57104 0.14583,0.80568 0.26737,1.11469 0.39015,0.9919 0.3097,-0.30969 0.41864,-0.20181 0.73443,0.72732 0.20251,0.59579 0.31054,1.4407 0.31575,2.4694 0.007,1.4207 -0.0351,1.62892 -0.46259,2.27617 -0.54036,0.81813 -1.70543,1.56629 -2.66462,1.71108 -0.40513,0.0611 -0.88014,0.30757 -1.23013,0.63817 -0.52957,0.50023 -0.67071,0.54223 -1.9838,0.59023 -1.16985,0.0428 -1.50777,-0.007 -1.95917,-0.29013 z m 5.04513,-5.94238 c -0.36958,-1.84791 -2.97096,-2.84715 -4.87325,-1.87189 -1.28622,0.65942 -1.88994,1.90367 -1.27594,2.62971 l 0.35549,0.42035 0.37573,-0.51752 c 0.20665,-0.28463 0.76076,-0.88797 1.23137,-1.34075 l 0.85563,-0.82323 0.53696,0.40795 c 0.29531,0.22437 0.88627,0.84208 1.31323,1.3727 l 0.77626,0.96476 0.40124,-0.37621 c 0.30373,-0.28479 0.37743,-0.49518 0.30328,-0.86587 z"
         style="fill:#ffffff;stroke-width:2;stroke-miterlimit:4;stroke-dasharray:none" /></g><g
       id="g2133"
       transform="translate(0,-2.1166667)"><rect
         y="185.04431"
         x="754.12262"
         height="16.994558"
         width="90.408852"
         id="rect2214"
         style="fill:none;stroke:#ffffff;stroke-width:2;stroke-linejoin:round;stroke-miterlimit:4;stroke-dasharray:none;stroke-opacity:1;paint-order:normal" /><text
         id="text2208"
         y="195.36945"
         x="771.93604"
         style="font-style:normal;font-variant:normal;font-weight:bold;font-stretch:normal;font-size:7.03021px;line-height:1.25;font-family:sans-serif;-inkscape-font-specification:'sans-serif, Bold';font-variant-ligatures:normal;font-variant-caps:normal;font-variant-numeric:normal;font-feature-settings:normal;text-align:start;letter-spacing:0px;word-spacing:0px;writing-mode:lr-tb;text-anchor:start;fill:#ffffff;fill-opacity:1;stroke:none;stroke-width:0.7;stroke-miterlimit:4;stroke-dasharray:none"
         xml:space="preserve"><tspan
           id="tspan2206"
           style="font-style:normal;font-variant:normal;font-weight:bold;font-stretch:normal;font-size:7.03021px;font-family:sans-serif;-inkscape-font-specification:'sans-serif, Bold';font-variant-ligatures:normal;font-variant-caps:normal;font-variant-numeric:normal;font-feature-settings:normal;text-align:start;writing-mode:lr-tb;text-anchor:start;fill:#ffffff;stroke-width:0.7;stroke-miterlimit:4;stroke-dasharray:none"
           y="195.36945"
           x="771.93604"
           sodipodi:role="line">GitHub application</tspan></text><path
         inkscape:connector-curvature="0"
         id="path985"
         d="m 757.80827,198.76632 -0.34764,-0.31062 v -4.91411 -4.91411 l 0.34764,-0.31061 0.34764,-0.31062 h 4.84007 4.84006 l 0.34764,0.31062 0.34764,0.31061 v 4.91411 4.91411 l -0.34764,0.31062 -0.34764,0.31061 h -4.84006 -4.84007 z m 4.17644,-1.87159 v -0.58547 h -0.43279 c -0.5726,0 -0.80143,-0.13676 -1.05261,-0.62912 -0.11479,-0.22501 -0.28564,-0.43863 -0.37967,-0.47471 -0.094,-0.0361 -0.14244,-0.11173 -0.10759,-0.16812 0.0864,-0.13974 0.54381,0.0456 0.50635,0.20515 -0.0161,0.0685 0.0144,0.0976 0.0678,0.0646 0.13091,-0.0809 0.36983,0.21946 0.28445,0.35761 -0.0381,0.0616 -0.006,0.086 0.0737,0.0555 0.0779,-0.0299 0.23084,0.0109 0.33986,0.0906 0.15079,0.11026 0.25709,0.11719 0.44431,0.029 0.19819,-0.0934 0.46908,-0.46365 0.46908,-0.64114 0,-0.0199 -0.22465,-0.0698 -0.49922,-0.11099 -0.67824,-0.10171 -1.15745,-0.57774 -1.25825,-1.24991 -0.0849,-0.56596 0.004,-1.07956 0.21628,-1.25611 0.0951,-0.0789 0.12635,-0.23292 0.0871,-0.42923 -0.15342,-0.76708 0.1654,-1.02268 0.8403,-0.67368 0.4812,0.24884 2.49912,0.24161 2.88363,-0.0103 0.14995,-0.0982 0.38318,-0.16296 0.5183,-0.14381 0.2161,0.0306 0.25218,0.10795 0.2998,0.64249 0.0298,0.33422 0.1136,0.66714 0.18628,0.73982 0.18921,0.1892 0.16311,1.21632 -0.0419,1.64829 -0.19636,0.41379 -0.55925,0.63825 -1.1967,0.74018 -0.28675,0.0459 -0.40849,0.11039 -0.35714,0.18933 0.0428,0.0659 0.10186,0.57484 0.13113,1.13103 0.0502,0.95387 0.067,1.01322 0.29652,1.04578 0.63624,0.0902 2.07685,-1.24656 2.47525,-2.29691 0.96523,-2.54477 -0.50662,-5.11999 -3.17159,-5.54917 -1.79732,-0.28945 -3.51267,0.58709 -4.30729,2.20101 -0.32175,0.65351 -0.34895,0.78898 -0.34583,1.72286 0.004,1.2482 0.26033,1.97523 0.97668,2.77199 0.52795,0.58721 1.42752,1.16632 1.81422,1.16793 0.21947,9.2e-4 0.23951,-0.048 0.23951,-0.58447 z"
         style="fill:#ffffff;stroke-width:1" /></g><g
       id="g1748"
       transform="translate(752.19348,-31.384509)"
       style="stroke-width:2.6;stroke-miterlimit:4;stroke-dasharray:none"><rect
         y="228.73601"
         x="406.79266"
         height="16.994558"
         width="94.996201"
         id="rect1676"
         style="opacity:1;fill:none;stroke:#ffffff;stroke-width:2.6;stroke-linejoin:round;stroke-miterlimit:4;stroke-dasharray:none;stroke-opacity:1;paint-order:normal" /><text
         id="text1680"
         y="239.14531"
         x="425.61053"
         style="font-style:normal;font-variant:normal;font-weight:bold;font-stretch:normal;font-size:7.03021px;line-height:1.25;font-family:sans-serif;-inkscape-font-specification:'sans-serif, Bold';font-variant-ligatures:normal;font-variant-caps:normal;font-variant-numeric:normal;font-feature-settings:normal;text-align:start;letter-spacing:0px;word-spacing:0px;writing-mode:lr-tb;text-anchor:start;opacity:1;fill:#ffffff;fill-opacity:1;stroke:none;stroke-width:2.6;stroke-miterlimit:4;stroke-dasharray:none"
         xml:space="preserve"><tspan
           id="tspan1678"
           style="font-style:normal;font-variant:normal;font-weight:bold;font-stretch:normal;font-size:7.03021px;font-family:sans-serif;-inkscape-font-specification:'sans-serif, Bold';font-variant-ligatures:normal;font-variant-caps:normal;font-variant-numeric:normal;font-feature-settings:normal;text-align:start;writing-mode:lr-tb;text-anchor:start;opacity:1;stroke-width:2.6;stroke-miterlimit:4;stroke-dasharray:none"
           y="239.14531"
           x="425.61053"
           sodipodi:role="line">copr build system</tspan></text><path
         style="opacity:1;fill:#ffffff;stroke-width:2.6;stroke-miterlimit:4;stroke-dasharray:none"
         d="m 415.54862,242.53591 c -1.37159,-0.50243 -2.88252,-2.13054 -3.29548,-3.55107 -0.79828,-2.74599 0.33395,-5.52706 2.76949,-6.80271 0.85693,-0.44881 1.26812,-0.53285 2.60712,-0.53285 1.33418,0 1.74947,0.0843 2.58332,0.52409 0.54648,0.28827 1.23148,0.77836 1.52225,1.08911 1.38059,1.47548 1.90906,3.87622 1.27408,5.78796 -0.40396,1.21624 -1.65478,2.68956 -2.77085,3.26374 -1.09768,0.56474 -3.44994,0.67595 -4.68993,0.22173 z m 4.46574,-0.61319 c 3.20131,-1.65046 3.84507,-5.85883 1.28745,-8.41644 -2.07581,-2.07581 -5.27427,-2.06987 -7.35779,0.0131 -1.45333,1.45334 -1.892,3.25945 -1.28668,5.29775 0.47311,1.59311 1.8134,2.9332 3.48075,3.48021 0.85093,0.27917 3.0129,0.0699 3.87627,-0.37519 z m -4.02141,-0.73978 c -0.93851,-0.40799 -2.11836,-1.70078 -2.39507,-2.62432 -0.35551,-1.1866 -0.29257,-2.02776 0.23681,-3.16465 1.2928,-2.7765 4.92018,-3.27397 6.99308,-0.95907 1.87173,2.09025 1.15007,5.51054 -1.40787,6.67259 -0.94655,0.43 -2.53104,0.46489 -3.42695,0.0755 z m 3.28414,-0.48038 c 1.83941,-0.94331 2.62636,-2.85808 1.96803,-4.78854 -0.13049,-0.38254 -0.31975,-0.67796 -0.42069,-0.6565 -0.10085,0.0215 -0.3344,0.52672 -0.51884,1.12281 -0.34267,1.10753 -1.1388,2.42862 -1.34144,2.22598 -0.15783,-0.15799 -1.04598,0.70822 -0.92571,0.90284 0.11935,0.19309 -1.27372,1.16844 -1.69681,1.18804 -0.2057,0.01 -0.17523,0.0683 0.0958,0.18476 0.69644,0.29925 2.07625,0.2121 2.83964,-0.17939 z m -0.85136,-1.6103 c 0.19841,-0.21926 0.40387,-0.35554 0.45654,-0.30287 0.1336,0.1336 -0.36211,0.70153 -0.61215,0.70153 -0.1128,0 -0.0427,-0.17939 0.15554,-0.39866 z m -1.57914,1.08321 c 0.36371,-0.2914 0.35737,-0.29554 -0.11101,-0.0725 -0.60828,0.28969 -0.721,0.38147 -0.46852,0.38147 0.10658,0 0.36744,-0.139 0.57959,-0.30903 z m -0.29292,-0.29572 c 0.43776,-0.22332 1.12722,-0.70535 1.53215,-1.07119 0.40492,-0.36582 0.81475,-0.65258 0.91071,-0.63721 0.0959,0.0147 0.30814,-0.19565 0.47151,-0.46889 l 0.29704,-0.49678 -0.41743,0.49678 c -0.22957,0.27324 -0.41939,0.3903 -0.42182,0.26013 -0.002,-0.13016 0.0825,-0.29043 0.18891,-0.35615 0.21934,-0.13556 0.99897,-2.54173 0.99897,-3.08312 0,-1.4257 -3.03503,0.5333 -4.10864,2.65199 -0.55589,1.09696 -0.86772,3.11049 -0.48173,3.11049 0.12902,0 0.59258,-0.18273 1.03033,-0.40605 z m -1.40789,-0.48819 c 0,-0.38252 -0.0349,-0.69551 -0.0776,-0.69551 -0.0426,0 -0.11412,0.31299 -0.15881,0.69551 -0.0447,0.38252 -0.01,0.69551 0.0776,0.69551 0.0874,0 0.15881,-0.31299 0.15881,-0.69551 z m 0.30217,-2.54578 c 0.21634,-0.41652 0.48277,-0.75555 0.59205,-0.75337 0.28731,0.007 1.69038,-1.40659 1.57802,-1.58841 -0.0521,-0.0841 0.17035,-0.30965 0.49421,-0.50096 0.75856,-0.44809 0.60414,-0.67234 -0.46296,-0.67234 -1.15025,0 -2.46372,0.72721 -3.199,1.77114 -0.50806,0.72135 -0.59557,1.02738 -0.59227,2.07127 0.003,0.85526 0.12083,1.42015 0.39138,1.87201 l 0.3875,0.64717 0.20886,-1.04459 c 0.11494,-0.57454 0.38587,-1.38539 0.60221,-1.80192 z m 0.69142,-1.05432 c 0,-0.2568 1.15587,-1.37113 1.28661,-1.2404 0.0542,0.0542 -0.21318,0.40051 -0.59408,0.76968 -0.38089,0.36919 -0.69253,0.581 -0.69253,0.47072 z m -0.85783,2.27118 c -0.0635,-0.15849 -0.11051,-0.1115 -0.12001,0.12001 -0.008,0.20948 0.0383,0.32685 0.10429,0.26082 0.066,-0.066 0.073,-0.23743 0.0164,-0.38088 z m 0.44444,-0.95632 c 0.22309,-0.46843 0.21895,-0.47477 -0.0725,-0.11101 -0.16997,0.21215 -0.30904,0.47296 -0.30904,0.5796 0,0.25247 0.0919,0.13982 0.38148,-0.46855 z m 4.37072,-0.79488 c -0.008,-0.19653 -0.0691,-0.16274 -0.1817,0.0994 -0.23475,0.54629 -0.23475,0.86004 0,0.4968 0.10593,-0.16395 0.18771,-0.43221 0.1817,-0.59616 z m 0.15275,-0.83212 c -0.0635,-0.15849 -0.11051,-0.1115 -0.12001,0.12001 -0.008,0.20948 0.0383,0.32684 0.1043,0.26081 0.066,-0.066 0.073,-0.23742 0.0164,-0.38087 z m 0.19873,-0.79488 c -0.0635,-0.15848 -0.11051,-0.11149 -0.12001,0.12001 -0.008,0.20947 0.0383,0.32684 0.10429,0.26081 0.066,-0.066 0.073,-0.23743 0.0164,-0.38088 z m -1.72548,-0.67223 c 0,-0.0547 -0.17885,-0.003 -0.39743,0.1133 -0.21859,0.1169 -0.39744,0.25742 -0.39744,0.31206 0,0.0547 0.17885,0.003 0.39744,-0.1133 0.21858,-0.11706 0.39743,-0.25742 0.39743,-0.31207 z m 0.59615,-0.28409 c 0,-0.1092 -0.0395,-0.19871 -0.0876,-0.19871 -0.0481,0 -0.14293,0.0894 -0.21045,0.19871 -0.0675,0.10937 -0.0282,0.19873 0.0876,0.19873 0.11575,0 0.21045,-0.0894 0.21045,-0.19873 z"
         id="path1734"
         inkscape:connector-curvature="0" /></g><g
       id="g621"
       transform="translate(752.03202,13.798785)"><path
         style="fill:#ffffff;stroke-width:1"
         d="m 392.06269,237.00219 -1.9692,-0.13776 v -2.39469 l 1e-5,-2.39469 -1.21903,-0.11753 c -1.11292,-0.10732 -1.22917,-0.23997 -1.33544,-1.52412 -0.13295,-1.60225 0.56636,-1.95282 0.7479,-0.37508 0.0989,0.85949 0.32195,1.05108 1.33772,1.14901 l 1.21903,0.11755 -2e-5,2.41428 c 10e-6,1.80552 0.13077,2.41431 0.51889,2.4143 0.62878,-1.2e-4 0.96947,-1.14525 0.97635,-3.28199 0.005,-1.52005 0.0574,-1.59413 1.13036,-1.59413 0.61889,-2e-5 1.12527,0.16879 1.12526,0.3751 -2e-5,0.2063 -0.33758,0.37508 -0.75016,0.37508 -0.51454,9e-5 -0.75019,0.25005 -0.75018,0.7961 -5e-5,0.66251 0.0937,0.71832 0.55851,0.33258 0.35433,-0.29407 1.04001,-0.37321 1.87543,-0.2165 1.1291,0.21181 1.31692,0.3951 1.31691,1.28513 6e-5,1.03501 -1.72431,3.12817 -2.45857,2.98448 -0.19502,-0.0383 -1.2407,-0.13138 -2.32377,-0.20714 z m 3.13028,-0.90669 c 0.15834,-0.25617 0.10367,-0.33167 -0.13389,-0.18486 -0.22087,0.13653 -0.83771,0.0823 -1.37076,-0.12031 -0.55767,-0.21202 -0.9692,-0.22423 -0.96919,-0.0288 10e-5,0.18682 0.37977,0.41286 0.84394,0.50226 0.46417,0.0894 0.96057,0.18552 1.10312,0.21362 0.14251,0.0281 0.37961,-0.14386 0.52682,-0.38196 z m -0.22335,-5.19323 4e-5,-1.12527 -3.00069,1e-5 c -1.7504,-1e-5 -3.00068,-0.15629 -3.00068,-0.3751 3e-5,-0.22228 1.37531,-0.37508 3.37577,-0.37502 h 3.37577 l 7e-5,1.50033 c -10e-5,0.8252 -0.16878,1.50035 -0.37509,1.50034 -0.2063,-2e-5 -0.3751,-0.50636 -0.37509,-1.12524 z"
         id="path2046"
         sodipodi:nodetypes="ccccsssscsssssssssssscssssssssccssscsssc" /><g
         id="g1526"
         transform="translate(31.750001)"><rect
           y="224.69598"
           x="350.3338"
           height="16.994558"
           width="73.644218"
           id="rect938"
           style="fill:none;stroke:#ffffff;stroke-width:2;stroke-linejoin:round;stroke-miterlimit:4;stroke-dasharray:none;stroke-opacity:1;paint-order:normal" /><text
           id="text942"
           y="235.10529"
           x="369.15167"
           style="font-style:normal;font-variant:normal;font-weight:bold;font-stretch:normal;font-size:7.03021px;line-height:1.25;font-family:sans-serif;-inkscape-font-specification:'sans-serif, Bold';font-variant-ligatures:normal;font-variant-caps:normal;font-variant-numeric:normal;font-feature-settings:normal;text-align:start;letter-spacing:0px;word-spacing:0px;writing-mode:lr-tb;text-anchor:start;fill:#ffffff;fill-opacity:1;stroke:none;stroke-width:2;stroke-miterlimit:4;stroke-dasharray:none"
           xml:space="preserve"><tspan
             id="tspan940"
             style="font-style:normal;font-variant:normal;font-weight:bold;font-stretch:normal;font-size:7.03021px;font-family:sans-serif;-inkscape-font-specification:'sans-serif, Bold';font-variant-ligatures:normal;font-variant-caps:normal;font-variant-numeric:normal;font-feature-settings:normal;text-align:start;writing-mode:lr-tb;text-anchor:start;opacity:1;stroke-width:2;stroke-miterlimit:4;stroke-dasharray:none"
             y="235.10529"
             x="369.15167"
             sodipodi:role="line">Testing Farm</tspan></text></g></g><text
       id="text1084"
       y="189.44542"
       x="974.74683"
       style="font-style:normal;font-variant:normal;font-weight:bold;font-stretch:normal;font-size:31.1416px;line-height:1.25;font-family:sans-serif;-inkscape-font-specification:'sans-serif, Bold';font-variant-ligatures:normal;font-variant-caps:normal;font-variant-numeric:normal;font-feature-settings:normal;text-align:start;letter-spacing:0px;word-spacing:0px;writing-mode:lr-tb;text-anchor:start;fill:#ffffff;fill-opacity:1;stroke:none;stroke-width:2;stroke-miterlimit:4;stroke-dasharray:none"
       xml:space="preserve"><tspan
         id="tspan1082"
         style="font-style:normal;font-variant:normal;font-weight:bold;font-stretch:normal;font-size:31.1416px;font-family:sans-serif;-inkscape-font-specification:'sans-serif, Bold';font-variant-ligatures:normal;font-variant-caps:normal;font-variant-numeric:normal;font-feature-settings:normal;text-align:start;writing-mode:lr-tb;text-anchor:start;opacity:1;stroke-width:2;stroke-miterlimit:4;stroke-dasharray:none"
         y="189.44542"
         x="974.74683"
         sodipodi:role="line">Packit</tspan></text><path
       id="path1164"
       d="m 920.83784,214.44493 11.93635,30.86814 c 2.85051,7.37144 11.513,10.64637 17.32511,6.5498 l 3.87471,-2.73106 3.80064,9.82868 c 7.66483,-24.02387 5.98722,-22.91202 -11.40187,-29.48603 l 3.80065,9.82867 -3.87473,2.73106 c -1.93739,1.36549 -4.82488,0.27381 -5.77504,-2.18326 -12.88501,-61.19444 -32.55365,-26.8426 -19.68578,-25.40602 z"
       inkscape:connector-curvature="0"
       style="fill:#ffffff;stroke-width:0.264582"
       sodipodi:nodetypes="cssccccscc" /><g
       id="g2391"
       transform="translate(874.3114,-88.515887)"><rect
         style="fill:none;stroke:#ffffff;stroke-width:2;stroke-linejoin:round;stroke-miterlimit:4;stroke-dasharray:none;stroke-opacity:1;paint-order:normal"
         id="rect1084"
         width="81.384636"
         height="16.994558"
         x="272.22104"
         y="356.85007" /><text
         xml:space="preserve"
         style="font-style:normal;font-variant:normal;font-weight:bold;font-stretch:normal;font-size:7.03021px;line-height:1.25;font-family:sans-serif;-inkscape-font-specification:'sans-serif, Bold';font-variant-ligatures:normal;font-variant-caps:normal;font-variant-numeric:normal;font-feature-settings:normal;text-align:start;letter-spacing:0px;word-spacing:0px;writing-mode:lr-tb;text-anchor:start;fill:#ffffff;fill-opacity:1;stroke:none;stroke-width:2;stroke-miterlimit:4;stroke-dasharray:none"
         x="289.10141"
         y="367.98367"
         id="text1088"><tspan
           sodipodi:role="line"
           x="289.10141"
           y="367.98367"
           style="font-style:normal;font-variant:normal;font-weight:bold;font-stretch:normal;font-size:7.03021px;font-family:sans-serif;-inkscape-font-specification:'sans-serif, Bold';font-variant-ligatures:normal;font-variant-caps:normal;font-variant-numeric:normal;font-feature-settings:normal;text-align:start;writing-mode:lr-tb;text-anchor:start;fill:#ffffff;stroke-width:2;stroke-miterlimit:4;stroke-dasharray:none"
           id="tspan1086">Lookaside cache</tspan></text><path
         style="fill:#ffffff;stroke-width:1"
         d="m 277.22057,370.19721 c -0.0515,-0.13426 -0.0937,-1.50598 -0.0937,-3.04817 0,-2.60281 0.0286,-2.8899 0.39858,-4.00087 0.21923,-0.65827 0.44498,-1.19937 0.5017,-1.20242 0.0568,-0.003 0.86719,-0.1732 1.80111,-0.37808 0.9339,-0.20488 1.74337,-0.32394 1.79881,-0.26457 0.0555,0.0594 0.13806,0.24685 0.18369,0.41665 0.0455,0.16982 0.0778,-0.004 0.0714,-0.3859 -0.0158,-0.95489 0.006,-1.08056 0.1888,-1.08056 0.0873,0 0.85049,0.39631 1.6959,0.88069 l 1.53708,0.88068 0.38803,1.16519 c 0.35865,1.07691 0.38804,1.38205 0.38804,4.02812 0,2.02091 -0.0544,2.91743 -0.18524,3.04819 -0.13499,0.13499 -1.32387,0.18524 -4.38288,0.18524 -3.68533,0 -4.2091,-0.0298 -4.29136,-0.24419 z m 8.24202,-3.07467 v -2.70139 h -3.85913 -3.85912 v 2.70139 2.70139 h 3.85912 3.85913 z m -7.40953,0 v -2.39266 h 3.5504 3.55041 v 2.39266 2.39266 h -3.55041 -3.5504 z m 0.43882,-4.47659 c -4.4e-4,-0.0849 -0.0962,0.054 -0.21285,0.30873 -0.1166,0.25471 -0.20989,0.56729 -0.20726,0.69464 0.003,0.12741 0.0984,-0.0117 0.21285,-0.30872 0.11442,-0.29716 0.2077,-0.60974 0.20726,-0.69465 z m 4.57805,0.74922 c -0.5094,-0.21773 -1.01302,-0.46651 -1.11915,-0.55284 -0.14258,-0.11603 -0.19296,-0.0749 -0.19296,0.158 0,0.17326 -0.0422,0.42489 -0.0937,0.55918 -0.0807,0.2102 0.0752,0.24329 1.11914,0.23784 l 1.21285,-0.006 z m -3.74042,0.1529 c -0.10449,-0.0423 -0.31289,-0.0448 -0.46309,-0.006 -0.15019,0.0391 -0.0647,0.0737 0.19001,0.0769 0.25471,0.003 0.3776,-0.0289 0.27308,-0.0712 z m 1.07762,-0.15534 c -0.10609,-0.0428 -0.27979,-0.0428 -0.38591,0 -0.1061,0.0428 -0.0193,0.0779 0.19295,0.0779 0.21226,0 0.29909,-0.035 0.19296,-0.0779 z m 4.55206,-0.43792 c -0.0912,-0.29708 -0.18936,-0.51656 -0.21817,-0.48775 -0.097,0.097 0.14142,1.0279 0.26332,1.0279 0.0664,0 0.046,-0.24307 -0.0451,-0.54015 z m -3.82118,-0.50182 c 10e-4,-0.38036 -0.0631,-0.49873 -0.26778,-0.48949 -0.14857,0.007 -0.19038,0.0448 -0.0928,0.0848 0.11135,0.0457 0.14979,0.31388 0.10347,0.72105 -0.0553,0.48605 -0.0327,0.59044 0.0905,0.41687 0.0903,-0.1274 0.16536,-0.45731 0.16666,-0.73323 z m 1.55163,-0.61745 c -0.0646,-0.64289 -0.0804,-0.66961 -0.12784,-0.21686 -0.0479,0.4583 0.0334,0.95008 0.157,0.95008 0.0245,0 0.0117,-0.32995 -0.0292,-0.73322 z"
         id="path2382" /></g><text
       id="text2659"
       y="390.28973"
       x="871.86786"
       style="font-style:normal;font-variant:normal;font-weight:bold;font-stretch:normal;font-size:7.03021px;line-height:1.25;font-family:sans-serif;-inkscape-font-specification:'sans-serif, Bold';font-variant-ligatures:normal;font-variant-caps:normal;font-variant-numeric:normal;font-feature-settings:normal;text-align:start;letter-spacing:0px;word-spacing:0px;writing-mode:lr-tb;text-anchor:start;fill:#ffffff;fill-opacity:1;stroke:none;stroke-width:2;stroke-miterlimit:4;stroke-dasharray:none"
       xml:space="preserve"><tspan
         id="tspan2657"
         style="font-style:normal;font-variant:normal;font-weight:bold;font-stretch:normal;font-size:7.03021px;font-family:sans-serif;-inkscape-font-specification:'sans-serif, Bold';font-variant-ligatures:normal;font-variant-caps:normal;font-variant-numeric:normal;font-feature-settings:normal;text-align:start;writing-mode:lr-tb;text-anchor:start;opacity:1;stroke-width:2;stroke-miterlimit:4;stroke-dasharray:none"
         y="390.28973"
         x="871.86786"
         sodipodi:role="line">.buildsys.task.</tspan></text><rect
       y="264.29977"
       x="-859.94147"
       height="177.67169"
       width="107.34765"
       id="rect1056"
       style="fill:none;stroke:#ffffff;stroke-width:1.99999;stroke-linejoin:round;stroke-miterlimit:4;stroke-dasharray:none;stroke-opacity:1;paint-order:normal"
       transform="scale(-1,1)" /><text
       id="text1060"
       y="311.54239"
       x="763.90204"
       style="font-style:normal;font-variant:normal;font-weight:bold;font-stretch:normal;font-size:15.3087px;line-height:1.25;font-family:sans-serif;-inkscape-font-specification:'sans-serif, Bold';font-variant-ligatures:normal;font-variant-caps:normal;font-variant-numeric:normal;font-feature-settings:normal;text-align:start;letter-spacing:0px;word-spacing:0px;writing-mode:lr-tb;text-anchor:start;fill:#ffffff;fill-opacity:1;stroke:none;stroke-width:2.00002;stroke-miterlimit:4;stroke-dasharray:none"
       xml:space="preserve"><tspan
         id="tspan1058"
         style="font-style:normal;font-variant:normal;font-weight:bold;font-stretch:normal;font-size:15.3087px;font-family:sans-serif;-inkscape-font-specification:'sans-serif, Bold';font-variant-ligatures:normal;font-variant-caps:normal;font-variant-numeric:normal;font-feature-settings:normal;text-align:start;writing-mode:lr-tb;text-anchor:start;opacity:1;stroke-width:2.00002;stroke-miterlimit:4;stroke-dasharray:none"
         y="311.54239"
         x="763.90204"
         sodipodi:role="line">Fedora</tspan><tspan
         style="font-style:normal;font-variant:normal;font-weight:bold;font-stretch:normal;font-size:15.3087px;font-family:sans-serif;-inkscape-font-specification:'sans-serif, Bold';font-variant-ligatures:normal;font-variant-caps:normal;font-variant-numeric:normal;font-feature-settings:normal;text-align:start;writing-mode:lr-tb;text-anchor:start;opacity:1;stroke-width:2.00002;stroke-miterlimit:4;stroke-dasharray:none"
         y="330.67825"
         x="763.90204"
         sodipodi:role="line"
         id="tspan2967">Messaging</tspan></text><path
       style="fill:#ffffff;stroke-width:0.999999"
       d="m 844.00156,302.02 c -1.8306,-0.93345 -2.72252,-2.33454 -2.72252,-4.27673 0,-1.91049 0.7751,-3.27217 2.44062,-4.28773 3.08986,-1.884 7.23944,0.55165 7.24136,4.25039 0.001,2.43881 -2.42547,4.95898 -4.77369,4.95755 -0.50872,-3.4e-4 -1.49232,-0.28979 -2.18577,-0.64348 z m 3.65081,-2.66517 c 2.24471,-2.24474 -0.87941,-5.41924 -3.19364,-3.24515 -1.05143,0.98778 -1.07419,1.75912 -0.0889,3.0117 0.91581,1.16426 2.25639,1.2596 3.28254,0.23326 z m -23.15168,-1.07894 c -0.21705,-0.4054 -0.38064,-3.24557 -0.38064,-6.60551 0,-5.38246 0.0599,-5.9263 0.68791,-6.26251 0.61743,-0.33048 0.71549,-1.05731 0.95639,-7.09097 0.14772,-3.69757 0.43743,-6.92969 0.64401,-7.18247 0.28903,-0.35384 3.79031,-0.45962 15.22211,-0.45962 h 14.84652 v 2.39001 2.38998 h -7.64804 c -5.45816,0 -7.77432,0.12623 -8.08919,0.44123 -0.5986,0.59859 -0.5986,6.97589 0,7.57448 0.31503,0.31503 2.63103,0.44123 8.08919,0.44123 h 7.64804 v 7.53767 7.53771 h -2.20615 -2.20616 v -1.48543 c 0,-3.45501 -2.45275,-5.86842 -5.96406,-5.86842 -3.41695,0 -6.16981,2.56716 -6.16981,5.7536 v 1.60025 h -7.52474 c -7.0632,0 -7.54811,-0.0437 -7.90538,-0.71123 z m 11.31197,-2.67154 c 0.62806,-0.62807 0.62806,-19.08022 0,-19.70832 -0.257,-0.257 -1.48912,-0.44123 -2.95063,-0.44123 -2.35538,0 -2.53143,0.058 -2.86802,0.94317 -0.19708,0.51874 -0.35874,4.78394 -0.35874,9.47819 0,10.29125 -0.0414,10.16942 3.44039,10.16942 1.29524,0 2.48791,-0.19219 2.73685,-0.44123 z"
       id="path2237" /><text
       id="text2663"
       y="398.75635"
       x="871.86786"
       style="font-style:normal;font-variant:normal;font-weight:bold;font-stretch:normal;font-size:7.03021px;line-height:1.25;font-family:sans-serif;-inkscape-font-specification:'sans-serif, Bold';font-variant-ligatures:normal;font-variant-caps:normal;font-variant-numeric:normal;font-feature-settings:normal;text-align:start;letter-spacing:0px;word-spacing:0px;writing-mode:lr-tb;text-anchor:start;fill:#ffffff;fill-opacity:1;stroke:none;stroke-width:2;stroke-miterlimit:4;stroke-dasharray:none"
       xml:space="preserve"><tspan
         id="tspan2661"
         style="font-style:normal;font-variant:normal;font-weight:bold;font-stretch:normal;font-size:7.03021px;font-family:sans-serif;-inkscape-font-specification:'sans-serif, Bold';font-variant-ligatures:normal;font-variant-caps:normal;font-variant-numeric:normal;font-feature-settings:normal;text-align:start;writing-mode:lr-tb;text-anchor:start;opacity:1;stroke-width:2;stroke-miterlimit:4;stroke-dasharray:none"
         y="398.75635"
         x="871.86786"
         sodipodi:role="line">.buildsys.build.</tspan></text><text
       id="text2671"
       y="358.13095"
       x="869.94281"
       style="font-style:normal;font-variant:normal;font-weight:bold;font-stretch:normal;font-size:7.03021px;line-height:1.25;font-family:sans-serif;-inkscape-font-specification:'sans-serif, Bold';font-variant-ligatures:normal;font-variant-caps:normal;font-variant-numeric:normal;font-feature-settings:normal;text-align:start;letter-spacing:0px;word-spacing:0px;writing-mode:lr-tb;text-anchor:start;fill:#ffffff;fill-opacity:1;stroke:none;stroke-width:2;stroke-miterlimit:4;stroke-dasharray:none"
       xml:space="preserve"><tspan
         id="tspan2669"
         style="font-style:normal;font-variant:normal;font-weight:bold;font-stretch:normal;font-size:7.03021px;font-family:sans-serif;-inkscape-font-specification:'sans-serif, Bold';font-variant-ligatures:normal;font-variant-caps:normal;font-variant-numeric:normal;font-feature-settings:normal;text-align:start;writing-mode:lr-tb;text-anchor:start;opacity:1;stroke-width:2;stroke-miterlimit:4;stroke-dasharray:none"
         y="358.13095"
         x="869.94281"
         sodipodi:role="line">.git.receive.</tspan></text><text
       id="text2675"
       y="350.19354"
       x="864.65106"
       style="font-style:normal;font-variant:normal;font-weight:bold;font-stretch:normal;font-size:7.03021px;line-height:1.25;font-family:sans-serif;-inkscape-font-specification:'sans-serif, Bold';font-variant-ligatures:normal;font-variant-caps:normal;font-variant-numeric:normal;font-feature-settings:normal;text-align:start;letter-spacing:0px;word-spacing:0px;writing-mode:lr-tb;text-anchor:start;fill:#ffffff;fill-opacity:1;stroke:none;stroke-width:2;stroke-miterlimit:4;stroke-dasharray:none"
       xml:space="preserve"><tspan
         id="tspan2673"
         style="font-style:normal;font-variant:normal;font-weight:bold;font-stretch:normal;font-size:7.03021px;font-family:sans-serif;-inkscape-font-specification:'sans-serif, Bold';font-variant-ligatures:normal;font-variant-caps:normal;font-variant-numeric:normal;font-feature-settings:normal;text-align:start;writing-mode:lr-tb;text-anchor:start;opacity:1;stroke-width:2;stroke-miterlimit:4;stroke-dasharray:none"
         y="350.19354"
         x="864.65106"
         sodipodi:role="line">.pagure.pull-request.</tspan></text><text
       id="text2821"
       y="307.89764"
       x="865.11713"
       style="font-style:normal;font-variant:normal;font-weight:bold;font-stretch:normal;font-size:7.03021px;line-height:1.25;font-family:sans-serif;-inkscape-font-specification:'sans-serif, Bold';font-variant-ligatures:normal;font-variant-caps:normal;font-variant-numeric:normal;font-feature-settings:normal;text-align:start;letter-spacing:0px;word-spacing:0px;writing-mode:lr-tb;text-anchor:start;fill:#ffffff;fill-opacity:1;stroke:none;stroke-width:2;stroke-miterlimit:4;stroke-dasharray:none"
       xml:space="preserve"><tspan
         id="tspan2819"
         style="font-style:normal;font-variant:normal;font-weight:bold;font-stretch:normal;font-size:7.03021px;font-family:sans-serif;-inkscape-font-specification:'sans-serif, Bold';font-variant-ligatures:normal;font-variant-caps:normal;font-variant-numeric:normal;font-feature-settings:normal;text-align:start;writing-mode:lr-tb;text-anchor:start;opacity:1;stroke-width:2;stroke-miterlimit:4;stroke-dasharray:none"
         y="307.89764"
         x="865.11713"
         sodipodi:role="line">.hotness.update.</tspan></text><rect
       y="160.27353"
       x="-1073.9117"
       height="281.30841"
       width="102.13251"
       id="rect428"
       style="fill:none;stroke:#ffffff;stroke-width:1.99999;stroke-linejoin:round;stroke-miterlimit:4;stroke-dasharray:none;stroke-opacity:1;paint-order:normal"
       transform="scale(-1,1)" /><g
       id="g434"
       transform="matrix(-0.11384436,-1.1321642,2.4406943,0.54144129,-95.506575,249.80554)"
       style="fill:#ffffff;stroke-width:0.608397" /><text
       id="text438"
       y="198.88589"
       x="884.01379"
       style="font-style:normal;font-variant:normal;font-weight:bold;font-stretch:normal;font-size:7.03021px;line-height:1.25;font-family:sans-serif;-inkscape-font-specification:'sans-serif, Bold';font-variant-ligatures:normal;font-variant-caps:normal;font-variant-numeric:normal;font-feature-settings:normal;text-align:start;letter-spacing:0px;word-spacing:0px;writing-mode:lr-tb;text-anchor:start;fill:#ffffff;fill-opacity:1;stroke:none;stroke-width:2;stroke-miterlimit:4;stroke-dasharray:none"
       xml:space="preserve"><tspan
         id="tspan436"
         style="font-style:normal;font-variant:normal;font-weight:bold;font-stretch:normal;font-size:7.03021px;font-family:sans-serif;-inkscape-font-specification:'sans-serif, Bold';font-variant-ligatures:normal;font-variant-caps:normal;font-variant-numeric:normal;font-feature-settings:normal;text-align:start;writing-mode:lr-tb;text-anchor:start;opacity:1;stroke-width:2;stroke-miterlimit:4;stroke-dasharray:none"
         y="198.88589"
         x="884.01379"
         sodipodi:role="line">webhook</tspan></text><g
       id="g681"
       transform="matrix(1.2360693,0,0,-0.6858831,-194.81893,451.88147)"
       style="stroke-width:1.08605"><path
         sodipodi:nodetypes="ccccccccccccc"
         inkscape:connector-curvature="0"
         id="path677"
         style="fill:#ffffff;stroke-width:0.287353"
         d="m 885.2884,355.82949 c 1.33637,0.10819 2.6331,0.26299 3.90172,0.44336 0.0624,0.009 0.12205,0.0186 0.18385,0.0276 1.94631,-0.0546 3.90225,0.25629 6.12218,0.97081 0.77964,0.25576 1.56324,0.51527 2.33171,0.77334 2.38166,0.79985 4.08144,1.65716 5.20443,2.51859 0.3149,-0.004 0.62648,4e-4 0.93265,0.0136 l 9.51821,0.409 -4.99388,8.41616 c 36.17954,-11.43778 40.27678,-11.31056 14.98063,-25.24774 l -4.99387,8.41615 -9.51848,-0.40953 c -7.74844,-0.33321 -16.59532,1.19488 -23.66915,3.66873 z" /><path
         id="path679"
         style="fill:#ffffff;stroke-width:0.287353"
         d="m 843.10262,363.91801 c 1.44203,3.05554 10.03744,4.42109 16.97634,0.0364 l 61.72534,-2.82719 c 0.61381,-0.0281 1.23047,-0.0713 1.84587,-0.12075 -0.38402,-0.48477 -0.7398,-0.97522 -1.08792,-1.46686 -0.6913,-0.97709 -1.28402,-1.97184 -1.85519,-2.97012 -0.54331,-0.94629 -1.05793,-1.89747 -1.57196,-2.84856 -0.20879,-0.38542 -0.43084,-0.76845 -0.65907,-1.15059 -34.85445,-1.09204 -54.89813,1.06365 -65.46551,4.00233 -8.53315,2.37298 -10.89455,5.25476 -9.9079,7.34539 z"
         inkscape:connector-curvature="0" /></g><rect
       style="fill:none;stroke:#ffffff;stroke-width:2;stroke-linejoin:round;stroke-miterlimit:4;stroke-dasharray:none;stroke-opacity:1;paint-order:normal"
       id="rect691"
       width="51.846729"
       height="16.994558"
       x="979.55499"
       y="229.45412" /><text
       xml:space="preserve"
       style="font-style:normal;font-variant:normal;font-weight:bold;font-stretch:normal;font-size:7.03021px;line-height:1.25;font-family:sans-serif;-inkscape-font-specification:'sans-serif, Bold';font-variant-ligatures:normal;font-variant-caps:normal;font-variant-numeric:normal;font-feature-settings:normal;text-align:start;letter-spacing:0px;word-spacing:0px;writing-mode:lr-tb;text-anchor:start;fill:#ffffff;fill-opacity:1;stroke:none;stroke-width:2;stroke-miterlimit:4;stroke-dasharray:none"
       x="986.60693"
       y="240.43404"
       id="text695"><tspan
         sodipodi:role="line"
         x="986.60693"
         y="240.43404"
         style="font-style:normal;font-variant:normal;font-weight:bold;font-stretch:normal;font-size:7.03021px;font-family:sans-serif;-inkscape-font-specification:'sans-serif, Bold';font-variant-ligatures:normal;font-variant-caps:normal;font-variant-numeric:normal;font-feature-settings:normal;text-align:start;writing-mode:lr-tb;text-anchor:start;fill:#ffffff;stroke-width:2;stroke-miterlimit:4;stroke-dasharray:none"
         id="tspan693">Test run</tspan></text><rect
       style="fill:none;stroke:#ffffff;stroke-width:2;stroke-linejoin:round;stroke-miterlimit:4;stroke-dasharray:none;stroke-opacity:1;paint-order:normal"
       id="rect702"
       width="85.405472"
       height="16.994558"
       x="979.55499"
       y="266.49579" /><text
       xml:space="preserve"
       style="font-style:normal;font-variant:normal;font-weight:bold;font-stretch:normal;font-size:7.03021px;line-height:1.25;font-family:sans-serif;-inkscape-font-specification:'sans-serif, Bold';font-variant-ligatures:normal;font-variant-caps:normal;font-variant-numeric:normal;font-feature-settings:normal;text-align:start;letter-spacing:0px;word-spacing:0px;writing-mode:lr-tb;text-anchor:start;fill:#ffffff;fill-opacity:1;stroke:none;stroke-width:2;stroke-miterlimit:4;stroke-dasharray:none"
       x="986.60693"
       y="277.47568"
       id="text706"><tspan
         sodipodi:role="line"
         x="986.60693"
         y="277.47568"
         style="font-style:normal;font-variant:normal;font-weight:bold;font-stretch:normal;font-size:7.03021px;font-family:sans-serif;-inkscape-font-specification:'sans-serif, Bold';font-variant-ligatures:normal;font-variant-caps:normal;font-variant-numeric:normal;font-feature-settings:normal;text-align:start;writing-mode:lr-tb;text-anchor:start;fill:#ffffff;stroke-width:2;stroke-miterlimit:4;stroke-dasharray:none"
         id="tspan704">Propose downstream</tspan></text><rect
       style="fill:none;stroke:#ffffff;stroke-width:2;stroke-linejoin:round;stroke-miterlimit:4;stroke-dasharray:none;stroke-opacity:1;paint-order:normal"
       id="rect708"
       width="85.405472"
       height="16.994558"
       x="979.55499"
       y="308.82904" /><text
       xml:space="preserve"
       style="font-style:normal;font-variant:normal;font-weight:bold;font-stretch:normal;font-size:7.03021px;line-height:1.25;font-family:sans-serif;-inkscape-font-specification:'sans-serif, Bold';font-variant-ligatures:normal;font-variant-caps:normal;font-variant-numeric:normal;font-feature-settings:normal;text-align:start;letter-spacing:0px;word-spacing:0px;writing-mode:lr-tb;text-anchor:start;fill:#ffffff;fill-opacity:1;stroke:none;stroke-width:2;stroke-miterlimit:4;stroke-dasharray:none"
       x="986.60693"
       y="319.80893"
       id="text712"><tspan
         sodipodi:role="line"
         x="986.60693"
         y="319.80893"
         style="font-style:normal;font-variant:normal;font-weight:bold;font-stretch:normal;font-size:7.03021px;font-family:sans-serif;-inkscape-font-specification:'sans-serif, Bold';font-variant-ligatures:normal;font-variant-caps:normal;font-variant-numeric:normal;font-feature-settings:normal;text-align:start;writing-mode:lr-tb;text-anchor:start;fill:#ffffff;stroke-width:2;stroke-miterlimit:4;stroke-dasharray:none"
         id="tspan710">Pull from upstream</tspan></text><rect
       style="fill:none;stroke:#ffffff;stroke-width:2;stroke-linejoin:round;stroke-miterlimit:4;stroke-dasharray:none;stroke-opacity:1;paint-order:normal"
       id="rect714"
       width="51.846729"
       height="16.994558"
       x="979.55499"
       y="356.45395" /><text
       xml:space="preserve"
       style="font-style:normal;font-variant:normal;font-weight:bold;font-stretch:normal;font-size:7.03021px;line-height:1.25;font-family:sans-serif;-inkscape-font-specification:'sans-serif, Bold';font-variant-ligatures:normal;font-variant-caps:normal;font-variant-numeric:normal;font-feature-settings:normal;text-align:start;letter-spacing:0px;word-spacing:0px;writing-mode:lr-tb;text-anchor:start;fill:#ffffff;fill-opacity:1;stroke:none;stroke-width:2;stroke-miterlimit:4;stroke-dasharray:none"
       x="986.60693"
       y="367.43384"
       id="text718"><tspan
         sodipodi:role="line"
         x="986.60693"
         y="367.43384"
         style="font-style:normal;font-variant:normal;font-weight:bold;font-stretch:normal;font-size:7.03021px;font-family:sans-serif;-inkscape-font-specification:'sans-serif, Bold';font-variant-ligatures:normal;font-variant-caps:normal;font-variant-numeric:normal;font-feature-settings:normal;text-align:start;writing-mode:lr-tb;text-anchor:start;fill:#ffffff;stroke-width:2;stroke-miterlimit:4;stroke-dasharray:none"
         id="tspan716">Koji build</tspan></text><rect
       style="fill:none;stroke:#ffffff;stroke-width:2;stroke-linejoin:round;stroke-miterlimit:4;stroke-dasharray:none;stroke-opacity:1;paint-order:normal"
       id="rect720"
       width="62.945374"
       height="16.994558"
       x="979.55499"
       y="396.14142" /><text
       xml:space="preserve"
       style="font-style:normal;font-variant:normal;font-weight:bold;font-stretch:normal;font-size:7.03021px;line-height:1.25;font-family:sans-serif;-inkscape-font-specification:'sans-serif, Bold';font-variant-ligatures:normal;font-variant-caps:normal;font-variant-numeric:normal;font-feature-settings:normal;text-align:start;letter-spacing:0px;word-spacing:0px;writing-mode:lr-tb;text-anchor:start;fill:#ffffff;fill-opacity:1;stroke:none;stroke-width:2;stroke-miterlimit:4;stroke-dasharray:none"
       x="986.60693"
       y="407.12131"
       id="text724"><tspan
         sodipodi:role="line"
         x="986.60693"
         y="407.12131"
         style="font-style:normal;font-variant:normal;font-weight:bold;font-stretch:normal;font-size:7.03021px;font-family:sans-serif;-inkscape-font-specification:'sans-serif, Bold';font-variant-ligatures:normal;font-variant-caps:normal;font-variant-numeric:normal;font-feature-settings:normal;text-align:start;writing-mode:lr-tb;text-anchor:start;fill:#ffffff;stroke-width:2;stroke-miterlimit:4;stroke-dasharray:none"
         id="tspan722">Bodhi update</tspan></text><rect
       style="fill:none;stroke:#ffffff;stroke-width:2;stroke-linejoin:round;stroke-miterlimit:4;stroke-dasharray:none;stroke-opacity:1;paint-order:normal"
       id="rect726"
       width="51.846729"
       height="16.994558"
       x="979.55499"
       y="197.70409" /><text
       xml:space="preserve"
       style="font-style:normal;font-variant:normal;font-weight:bold;font-stretch:normal;font-size:7.03021px;line-height:1.25;font-family:sans-serif;-inkscape-font-specification:'sans-serif, Bold';font-variant-ligatures:normal;font-variant-caps:normal;font-variant-numeric:normal;font-feature-settings:normal;text-align:start;letter-spacing:0px;word-spacing:0px;writing-mode:lr-tb;text-anchor:start;fill:#ffffff;fill-opacity:1;stroke:none;stroke-width:2;stroke-miterlimit:4;stroke-dasharray:none"
       x="986.60693"
       y="208.68401"
       id="text730"><tspan
         sodipodi:role="line"
         x="986.60693"
         y="208.68401"
         style="font-style:normal;font-variant:normal;font-weight:bold;font-stretch:normal;font-size:7.03021px;font-family:sans-serif;-inkscape-font-specification:'sans-serif, Bold';font-variant-ligatures:normal;font-variant-caps:normal;font-variant-numeric:normal;font-feature-settings:normal;text-align:start;writing-mode:lr-tb;text-anchor:start;fill:#ffffff;stroke-width:2;stroke-miterlimit:4;stroke-dasharray:none"
         id="tspan728">Copr build</tspan></text><path
       id="path732"
       d="m 931.37422,237.822 3.48767,33.77811 c 0.83293,8.06638 8.27031,14.37595 14.87489,12.61913 l 4.40303,-1.17123 1.11052,10.75524 c 13.48658,-20.03986 11.59833,-19.59995 -3.33149,-32.2657 l 1.11052,10.75523 -4.40305,1.17123 c -2.20154,0.58557 -4.68064,-1.51765 -4.9583,-4.20637 3.38497,-62.99092 -24.22112,-37.54549 -12.29374,-31.43565 z"
       inkscape:connector-curvature="0"
       style="fill:#ffffff;stroke-width:0.264582"
       sodipodi:nodetypes="cssccccscc" /><g
       id="g738"
       transform="matrix(1.2360693,0,0,-0.6858831,-6.7918205,452.55842)"
       style="stroke-width:1.08605"><path
         sodipodi:nodetypes="ccccccccccccc"
         inkscape:connector-curvature="0"
         id="path734"
         style="fill:#ffffff;stroke-width:0.287353"
         d="m 885.2884,355.82949 c 1.33637,0.10819 2.6331,0.26299 3.90172,0.44336 0.0624,0.009 0.12205,0.0186 0.18385,0.0276 1.94631,-0.0546 3.90225,0.25629 6.12218,0.97081 0.77964,0.25576 1.56324,0.51527 2.33171,0.77334 2.38166,0.79985 4.08144,1.65716 5.20443,2.51859 0.3149,-0.004 0.62648,4e-4 0.93265,0.0136 l 9.51821,0.409 -4.99388,8.41616 c 36.17954,-11.43778 40.27678,-11.31056 14.98063,-25.24774 l -4.99387,8.41615 -9.51848,-0.40953 c -7.74844,-0.33321 -16.59532,1.19488 -23.66915,3.66873 z" /><path
         id="path736"
         style="fill:#ffffff;stroke-width:0.287353"
         d="m 843.10262,363.91801 c 1.44203,3.05554 10.03744,4.42109 16.97634,0.0364 l 61.72534,-2.82719 c 0.61381,-0.0281 1.23047,-0.0713 1.84587,-0.12075 -0.38402,-0.48477 -0.7398,-0.97522 -1.08792,-1.46686 -0.6913,-0.97709 -1.28402,-1.97184 -1.85519,-2.97012 -0.54331,-0.94629 -1.05793,-1.89747 -1.57196,-2.84856 -0.20879,-0.38542 -0.43084,-0.76845 -0.65907,-1.15059 -34.85445,-1.09204 -54.89813,1.06365 -65.46551,4.00233 -8.53315,2.37298 -10.89455,5.25476 -9.9079,7.34539 z"
         inkscape:connector-curvature="0" /></g><g
       id="g789"
       transform="matrix(0.9907282,0.21155626,-0.01893007,0.91717477,204.98578,-273.72814)"
       style="stroke-width:1.04674"><path
         sodipodi:nodetypes="ccccccccccccc"
         inkscape:connector-curvature="0"
         id="path785"
         style="fill:#ffffff;stroke-width:0.276952"
         d="m 885.2884,355.82949 c 1.33637,0.10819 2.6331,0.26299 3.90172,0.44336 0.0624,0.009 0.12205,0.0186 0.18385,0.0276 1.94631,-0.0546 3.90225,0.25629 6.12218,0.97081 0.77964,0.25576 1.56324,0.51527 2.33171,0.77334 2.38166,0.79985 4.08144,1.65716 5.20443,2.51859 0.3149,-0.004 0.62648,4e-4 0.93265,0.0136 l 9.51821,0.409 -4.99388,8.41616 c 36.17954,-11.43778 40.27678,-11.31056 14.98063,-25.24774 l -4.99387,8.41615 -9.51848,-0.40953 c -7.74844,-0.33321 -16.59532,1.19488 -23.66915,3.66873 z" /><path
         id="path787"
         style="fill:#ffffff;stroke-width:0.276952"
         d="m 843.10262,363.91801 c 1.44203,3.05554 10.03744,4.42109 16.97634,0.0364 l 61.72534,-2.82719 c 0.61381,-0.0281 1.23047,-0.0713 1.84587,-0.12075 -0.38402,-0.48477 -0.7398,-0.97522 -1.08792,-1.46686 -0.6913,-0.97709 -1.28402,-1.97184 -1.85519,-2.97012 -0.54331,-0.94629 -1.05793,-1.89747 -1.57196,-2.84856 -0.20879,-0.38542 -0.43084,-0.76845 -0.65907,-1.15059 -34.85445,-1.09204 -54.89813,1.06365 -65.46551,4.00233 -8.53315,2.37298 -10.89455,5.25476 -9.9079,7.34539 z"
         inkscape:connector-curvature="0" /></g><g
       id="g795"
       transform="matrix(1.2360693,0,0,-0.6858831,-194.81893,563.00654)"
       style="stroke-width:1.08605"><path
         sodipodi:nodetypes="ccccccccccccc"
         inkscape:connector-curvature="0"
         id="path791"
         style="fill:#ffffff;stroke-width:0.287353"
         d="m 885.2884,355.82949 c 1.33637,0.10819 2.6331,0.26299 3.90172,0.44336 0.0624,0.009 0.12205,0.0186 0.18385,0.0276 1.94631,-0.0546 3.90225,0.25629 6.12218,0.97081 0.77964,0.25576 1.56324,0.51527 2.33171,0.77334 2.38166,0.79985 4.08144,1.65716 5.20443,2.51859 0.3149,-0.004 0.62648,4e-4 0.93265,0.0136 l 9.51821,0.409 -4.99388,8.41616 c 36.17954,-11.43778 40.27678,-11.31056 14.98063,-25.24774 l -4.99387,8.41615 -9.51848,-0.40953 c -7.74844,-0.33321 -16.59532,1.19488 -23.66915,3.66873 z" /><path
         id="path793"
         style="fill:#ffffff;stroke-width:0.287353"
         d="m 843.10262,363.91801 c 1.44203,3.05554 10.03744,4.42109 16.97634,0.0364 l 61.72534,-2.82719 c 0.61381,-0.0281 1.23047,-0.0713 1.84587,-0.12075 -0.38402,-0.48477 -0.7398,-0.97522 -1.08792,-1.46686 -0.6913,-0.97709 -1.28402,-1.97184 -1.85519,-2.97012 -0.54331,-0.94629 -1.05793,-1.89747 -1.57196,-2.84856 -0.20879,-0.38542 -0.43084,-0.76845 -0.65907,-1.15059 -34.85445,-1.09204 -54.89813,1.06365 -65.46551,4.00233 -8.53315,2.37298 -10.89455,5.25476 -9.9079,7.34539 z"
         inkscape:connector-curvature="0" /></g><g
       id="g801"
       transform="matrix(1.2360693,0,0,-0.6858831,-194.81893,610.63157)"
       style="stroke-width:1.08605"><path
         sodipodi:nodetypes="ccccccccccccc"
         inkscape:connector-curvature="0"
         id="path797"
         style="fill:#ffffff;stroke-width:0.287353"
         d="m 885.2884,355.82949 c 1.33637,0.10819 2.6331,0.26299 3.90172,0.44336 0.0624,0.009 0.12205,0.0186 0.18385,0.0276 1.94631,-0.0546 3.90225,0.25629 6.12218,0.97081 0.77964,0.25576 1.56324,0.51527 2.33171,0.77334 2.38166,0.79985 4.08144,1.65716 5.20443,2.51859 0.3149,-0.004 0.62648,4e-4 0.93265,0.0136 l 9.51821,0.409 -4.99388,8.41616 c 36.17954,-11.43778 40.27678,-11.31056 14.98063,-25.24774 l -4.99387,8.41615 -9.51848,-0.40953 c -7.74844,-0.33321 -16.59532,1.19488 -23.66915,3.66873 z" /><path
         id="path799"
         style="fill:#ffffff;stroke-width:0.287353"
         d="m 843.10262,363.91801 c 1.44203,3.05554 10.03744,4.42109 16.97634,0.0364 l 61.72534,-2.82719 c 0.61381,-0.0281 1.23047,-0.0713 1.84587,-0.12075 -0.38402,-0.48477 -0.7398,-0.97522 -1.08792,-1.46686 -0.6913,-0.97709 -1.28402,-1.97184 -1.85519,-2.97012 -0.54331,-0.94629 -1.05793,-1.89747 -1.57196,-2.84856 -0.20879,-0.38542 -0.43084,-0.76845 -0.65907,-1.15059 -34.85445,-1.09204 -54.89813,1.06365 -65.46551,4.00233 -8.53315,2.37298 -10.89455,5.25476 -9.9079,7.34539 z"
         inkscape:connector-curvature="0" /></g><g
       id="g807"
       transform="matrix(1.2360693,0,0,-0.6858831,-194.81893,650.31911)"
       style="stroke-width:1.08605"><path
         sodipodi:nodetypes="ccccccccccccc"
         inkscape:connector-curvature="0"
         id="path803"
         style="fill:#ffffff;stroke-width:0.287353"
         d="m 885.2884,355.82949 c 1.33637,0.10819 2.6331,0.26299 3.90172,0.44336 0.0624,0.009 0.12205,0.0186 0.18385,0.0276 1.94631,-0.0546 3.90225,0.25629 6.12218,0.97081 0.77964,0.25576 1.56324,0.51527 2.33171,0.77334 2.38166,0.79985 4.08144,1.65716 5.20443,2.51859 0.3149,-0.004 0.62648,4e-4 0.93265,0.0136 l 9.51821,0.409 -4.99388,8.41616 c 36.17954,-11.43778 40.27678,-11.31056 14.98063,-25.24774 l -4.99387,8.41615 -9.51848,-0.40953 c -7.74844,-0.33321 -16.59532,1.19488 -23.66915,3.66873 z" /><path
         id="path805"
         style="fill:#ffffff;stroke-width:0.287353"
         d="m 843.10262,363.91801 c 1.44203,3.05554 10.03744,4.42109 16.97634,0.0364 l 61.72534,-2.82719 c 0.61381,-0.0281 1.23047,-0.0713 1.84587,-0.12075 -0.38402,-0.48477 -0.7398,-0.97522 -1.08792,-1.46686 -0.6913,-0.97709 -1.28402,-1.97184 -1.85519,-2.97012 -0.54331,-0.94629 -1.05793,-1.89747 -1.57196,-2.84856 -0.20879,-0.38542 -0.43084,-0.76845 -0.65907,-1.15059 -34.85445,-1.09204 -54.89813,1.06365 -65.46551,4.00233 -8.53315,2.37298 -10.89455,5.25476 -9.9079,7.34539 z"
         inkscape:connector-curvature="0" /></g><g
       id="g1766"
       transform="rotate(-137.54499,678.95227,169.65604)"
       style="fill:#ffffff"><path
         sodipodi:nodetypes="ccccccccccccc"
         inkscape:connector-curvature="0"
         id="path1762"
         transform="matrix(0.26458333,0,0,0.26458333,262.14438,241.01445)"
         style="fill:#ffffff;stroke-width:1"
         d="m 59.523438,538.45898 c -1.101441,1.81323 -2.342315,3.53641 -3.65625,5.20118 -0.06385,0.0821 -0.130756,0.15926 -0.195313,0.24023 -0.871275,2.7952 -3.010187,5.33809 -6.6875,7.96094 -1.308132,0.91763 -2.631384,1.83815 -3.941406,2.73828 -4.060166,2.78971 -7.947583,4.57223 -11.535157,5.53516 -0.158536,0.44855 -0.342485,0.88666 -0.554687,1.31054 L 26.357422,574.62305 0,561.42773 c 19.816176,59.54555 17.145701,65.25363 79.070312,39.58399 l -26.357421,-13.19531 6.597656,-13.17774 c 5.370215,-10.72734 4.907977,-24.36446 0.212891,-36.17969 z" /><path
         id="path1764"
         transform="matrix(0.26458333,0,0,0.26458333,262.14438,241.01445)"
         style="fill:#ffffff;stroke-width:1"
         d="m 54.548828,472.84766 c -11.341613,-0.18225 -20.739586,10.99287 -9.36914,24.00781 l -23.841797,89.44531 c -0.236977,0.88948 -0.423746,1.7939 -0.587891,2.70117 1.883906,-0.19086 3.772055,-0.33761 5.660156,-0.47265 3.752126,-0.26759 7.511573,-0.38276 11.271485,-0.46485 3.565115,-0.0805 7.131508,-0.11681 10.697265,-0.15234 1.445254,-0.0151 2.889487,-0.0507 4.333985,-0.0957 C 75.463908,539.26599 78.930053,509.32023 74.53125,492.2207 70.979225,478.41285 62.308879,472.97235 54.548828,472.84766 Z"
         inkscape:connector-curvature="0" /></g><g
       id="g813"
       transform="matrix(1.0049695,0.12780762,0.05797889,0.9155361,183.87628,-143.35378)"
       style="stroke-width:1.04674"><path
         sodipodi:nodetypes="ccccccccccccc"
         inkscape:connector-curvature="0"
         id="path809"
         style="fill:#ffffff;stroke-width:0.276952"
         d="m 885.2884,355.82949 c 1.33637,0.10819 2.6331,0.26299 3.90172,0.44336 0.0624,0.009 0.12205,0.0186 0.18385,0.0276 1.94631,-0.0546 3.90225,0.25629 6.12218,0.97081 0.77964,0.25576 1.56324,0.51527 2.33171,0.77334 2.38166,0.79985 4.08144,1.65716 5.20443,2.51859 0.3149,-0.004 0.62648,4e-4 0.93265,0.0136 l 9.51821,0.409 -4.99388,8.41616 c 36.17954,-11.43778 40.27678,-11.31056 14.98063,-25.24774 l -4.99387,8.41615 -9.51848,-0.40953 c -7.74844,-0.33321 -16.59532,1.19488 -23.66915,3.66873 z" /><path
         id="path811"
         style="fill:#ffffff;stroke-width:0.276952"
         d="m 843.10262,363.91801 c 1.44203,3.05554 10.03744,4.42109 16.97634,0.0364 l 61.72534,-2.82719 c 0.61381,-0.0281 1.23047,-0.0713 1.84587,-0.12075 -0.38402,-0.48477 -0.7398,-0.97522 -1.08792,-1.46686 -0.6913,-0.97709 -1.28402,-1.97184 -1.85519,-2.97012 -0.54331,-0.94629 -1.05793,-1.89747 -1.57196,-2.84856 -0.20879,-0.38542 -0.43084,-0.76845 -0.65907,-1.15059 -34.85445,-1.09204 -54.89813,1.06365 -65.46551,4.00233 -8.53315,2.37298 -10.89455,5.25476 -9.9079,7.34539 z"
         inkscape:connector-curvature="0" /></g><text
       id="text831"
       y="194.06897"
       x="1099.0865"
       style="font-style:normal;font-variant:normal;font-weight:bold;font-stretch:normal;font-size:7.03021px;line-height:1.25;font-family:sans-serif;-inkscape-font-specification:'sans-serif, Bold';font-variant-ligatures:normal;font-variant-caps:normal;font-variant-numeric:normal;font-feature-settings:normal;text-align:start;letter-spacing:0px;word-spacing:0px;writing-mode:lr-tb;text-anchor:start;fill:#ffffff;fill-opacity:1;stroke:none;stroke-width:2;stroke-miterlimit:4;stroke-dasharray:none"
       xml:space="preserve"><tspan
         id="tspan829"
         style="font-style:normal;font-variant:normal;font-weight:bold;font-stretch:normal;font-size:7.03021px;font-family:sans-serif;-inkscape-font-specification:'sans-serif, Bold';font-variant-ligatures:normal;font-variant-caps:normal;font-variant-numeric:normal;font-feature-settings:normal;text-align:start;writing-mode:lr-tb;text-anchor:start;opacity:1;stroke-width:2;stroke-miterlimit:4;stroke-dasharray:none"
         y="194.06897"
         x="1099.0865"
         sodipodi:role="line">Python client</tspan></text><text
       id="text835"
       y="232.41736"
       x="1097.2467"
       style="font-style:normal;font-variant:normal;font-weight:bold;font-stretch:normal;font-size:7.03021px;line-height:1.25;font-family:sans-serif;-inkscape-font-specification:'sans-serif, Bold';font-variant-ligatures:normal;font-variant-caps:normal;font-variant-numeric:normal;font-feature-settings:normal;text-align:start;letter-spacing:0px;word-spacing:0px;writing-mode:lr-tb;text-anchor:start;fill:#ffffff;fill-opacity:1;stroke:none;stroke-width:2;stroke-miterlimit:4;stroke-dasharray:none"
       xml:space="preserve"><tspan
         id="tspan833"
         style="font-style:normal;font-variant:normal;font-weight:bold;font-stretch:normal;font-size:7.03021px;font-family:sans-serif;-inkscape-font-specification:'sans-serif, Bold';font-variant-ligatures:normal;font-variant-caps:normal;font-variant-numeric:normal;font-feature-settings:normal;text-align:start;writing-mode:lr-tb;text-anchor:start;opacity:1;stroke-width:2;stroke-miterlimit:4;stroke-dasharray:none"
         y="232.41736"
         x="1097.2467"
         sodipodi:role="line">REST API</tspan></text><text
       id="text839"
       y="319.75711"
       x="1107.4974"
       style="font-style:normal;font-variant:normal;font-weight:bold;font-stretch:normal;font-size:7.03021px;line-height:1.25;font-family:sans-serif;-inkscape-font-specification:'sans-serif, Bold';font-variant-ligatures:normal;font-variant-caps:normal;font-variant-numeric:normal;font-feature-settings:normal;text-align:start;letter-spacing:0px;word-spacing:0px;writing-mode:lr-tb;text-anchor:start;fill:#ffffff;fill-opacity:1;stroke:none;stroke-width:2;stroke-miterlimit:4;stroke-dasharray:none"
       xml:space="preserve"><tspan
         id="tspan837"
         style="font-style:normal;font-variant:normal;font-weight:bold;font-stretch:normal;font-size:7.03021px;font-family:sans-serif;-inkscape-font-specification:'sans-serif, Bold';font-variant-ligatures:normal;font-variant-caps:normal;font-variant-numeric:normal;font-feature-settings:normal;text-align:start;writing-mode:lr-tb;text-anchor:start;opacity:1;stroke-width:2;stroke-miterlimit:4;stroke-dasharray:none"
         y="319.75711"
         x="1107.4974"
         sodipodi:role="line">git + OGR*</tspan></text><g
       id="g949"
       transform="matrix(0.9907282,0.21155626,-0.01893007,0.91717477,220.1508,-110.12427)"
       style="stroke-width:1.04674"><path
         sodipodi:nodetypes="ccccccccccccc"
         inkscape:connector-curvature="0"
         id="path945"
         style="fill:#ffffff;stroke-width:0.276952"
         d="m 885.2884,355.82949 c 1.33637,0.10819 2.6331,0.26299 3.90172,0.44336 0.0624,0.009 0.12205,0.0186 0.18385,0.0276 1.94631,-0.0546 3.90225,0.25629 6.12218,0.97081 0.77964,0.25576 1.56324,0.51527 2.33171,0.77334 2.38166,0.79985 4.08144,1.65716 5.20443,2.51859 0.3149,-0.004 0.62648,4e-4 0.93265,0.0136 l 9.51821,0.409 -4.99388,8.41616 c 36.17954,-11.43778 40.27678,-11.31056 14.98063,-25.24774 l -4.99387,8.41615 -9.51848,-0.40953 c -7.74844,-0.33321 -16.59532,1.19488 -23.66915,3.66873 z" /><path
         id="path947"
         style="fill:#ffffff;stroke-width:0.276952"
         d="m 843.10262,363.91801 c 1.44203,3.05554 10.03744,4.42109 16.97634,0.0364 l 61.72534,-2.82719 c 0.61381,-0.0281 1.23047,-0.0713 1.84587,-0.12075 -0.38402,-0.48477 -0.7398,-0.97522 -1.08792,-1.46686 -0.6913,-0.97709 -1.28402,-1.97184 -1.85519,-2.97012 -0.54331,-0.94629 -1.05793,-1.89747 -1.57196,-2.84856 -0.20879,-0.38542 -0.43084,-0.76845 -0.65907,-1.15059 -34.85445,-1.09204 -54.89813,1.06365 -65.46551,4.00233 -8.53315,2.37298 -10.89455,5.25476 -9.9079,7.34539 z"
         inkscape:connector-curvature="0" /></g><text
       id="text953"
       y="395.1521"
       x="1099.0865"
       style="font-style:normal;font-variant:normal;font-weight:bold;font-stretch:normal;font-size:7.03021px;line-height:1.25;font-family:sans-serif;-inkscape-font-specification:'sans-serif, Bold';font-variant-ligatures:normal;font-variant-caps:normal;font-variant-numeric:normal;font-feature-settings:normal;text-align:start;letter-spacing:0px;word-spacing:0px;writing-mode:lr-tb;text-anchor:start;fill:#ffffff;fill-opacity:1;stroke:none;stroke-width:2;stroke-miterlimit:4;stroke-dasharray:none"
       xml:space="preserve"><tspan
         id="tspan951"
         style="font-style:normal;font-variant:normal;font-weight:bold;font-stretch:normal;font-size:7.03021px;font-family:sans-serif;-inkscape-font-specification:'sans-serif, Bold';font-variant-ligatures:normal;font-variant-caps:normal;font-variant-numeric:normal;font-feature-settings:normal;text-align:start;writing-mode:lr-tb;text-anchor:start;opacity:1;stroke-width:2;stroke-miterlimit:4;stroke-dasharray:none"
         y="395.1521"
         x="1099.0865"
         sodipodi:role="line">Python client</tspan></text><g
       id="g971"
       transform="matrix(1.0104298,-0.07300658,0.10764541,-0.91103259,146.37357,758.17325)"
       style="stroke-width:1.04674"><path
         sodipodi:nodetypes="ccccccccccccc"
         inkscape:connector-curvature="0"
         id="path967"
         style="fill:#ffffff;stroke-width:0.276952"
         d="m 885.2884,355.82949 c 1.33637,0.10819 2.6331,0.26299 3.90172,0.44336 0.0624,0.009 0.12205,0.0186 0.18385,0.0276 1.94631,-0.0546 3.90225,0.25629 6.12218,0.97081 0.77964,0.25576 1.56324,0.51527 2.33171,0.77334 2.38166,0.79985 4.08144,1.65716 5.20443,2.51859 0.3149,-0.004 0.62648,4e-4 0.93265,0.0136 l 9.51821,0.409 -4.99388,8.41616 c 36.17954,-11.43778 40.27678,-11.31056 14.98063,-25.24774 l -4.99387,8.41615 -9.51848,-0.40953 c -7.74844,-0.33321 -16.59532,1.19488 -23.66915,3.66873 z" /><path
         id="path969"
         style="fill:#ffffff;stroke-width:0.276952"
         d="m 843.10262,363.91801 c 1.44203,3.05554 10.03744,4.42109 16.97634,0.0364 l 61.72534,-2.82719 c 0.61381,-0.0281 1.23047,-0.0713 1.84587,-0.12075 -0.38402,-0.48477 -0.7398,-0.97522 -1.08792,-1.46686 -0.6913,-0.97709 -1.28402,-1.97184 -1.85519,-2.97012 -0.54331,-0.94629 -1.05793,-1.89747 -1.57196,-2.84856 -0.20879,-0.38542 -0.43084,-0.76845 -0.65907,-1.15059 -34.85445,-1.09204 -54.89813,1.06365 -65.46551,4.00233 -8.53315,2.37298 -10.89455,5.25476 -9.9079,7.34539 z"
         inkscape:connector-curvature="0" /></g><text
       id="text975"
       y="352.81885"
       x="1088.5033"
       style="font-style:normal;font-variant:normal;font-weight:bold;font-stretch:normal;font-size:7.03021px;line-height:1.25;font-family:sans-serif;-inkscape-font-specification:'sans-serif, Bold';font-variant-ligatures:normal;font-variant-caps:normal;font-variant-numeric:normal;font-feature-settings:normal;text-align:start;letter-spacing:0px;word-spacing:0px;writing-mode:lr-tb;text-anchor:start;fill:#ffffff;fill-opacity:1;stroke:none;stroke-width:2;stroke-miterlimit:4;stroke-dasharray:none"
       xml:space="preserve"><tspan
         id="tspan973"
         style="font-style:normal;font-variant:normal;font-weight:bold;font-stretch:normal;font-size:7.03021px;font-family:sans-serif;-inkscape-font-specification:'sans-serif, Bold';font-variant-ligatures:normal;font-variant-caps:normal;font-variant-numeric:normal;font-feature-settings:normal;text-align:start;writing-mode:lr-tb;text-anchor:start;opacity:1;stroke-width:2;stroke-miterlimit:4;stroke-dasharray:none"
         y="352.81885"
         x="1088.5033"
         sodipodi:role="line">Python client</tspan></text><text
       id="text979"
       y="461.07281"
       x="974.86401"
       style="font-style:normal;font-variant:normal;font-weight:bold;font-stretch:normal;font-size:7.03021px;line-height:1.25;font-family:sans-serif;-inkscape-font-specification:'sans-serif, Bold';font-variant-ligatures:normal;font-variant-caps:normal;font-variant-numeric:normal;font-feature-settings:normal;text-align:start;letter-spacing:0px;word-spacing:0px;writing-mode:lr-tb;text-anchor:start;fill:#ffffff;fill-opacity:1;stroke:none;stroke-width:2;stroke-miterlimit:4;stroke-dasharray:none"
       xml:space="preserve"><tspan
         id="tspan977"
         style="font-style:italic;font-variant:normal;font-weight:bold;font-stretch:normal;font-size:7.03021px;font-family:sans-serif;-inkscape-font-specification:'sans-serif, Bold';font-variant-ligatures:normal;font-variant-caps:normal;font-variant-numeric:normal;font-feature-settings:normal;text-align:start;writing-mode:lr-tb;text-anchor:start;opacity:1;stroke-width:2;stroke-miterlimit:4;stroke-dasharray:none"
         y="461.07281"
         x="974.86401"
         sodipodi:role="line">* OGR = custom Python library using Pagure's REST API</tspan></text><text
       id="text983"
       y="275.9938"
       x="1097.3717"
       style="font-style:normal;font-variant:normal;font-weight:bold;font-stretch:normal;font-size:7.03021px;line-height:1.25;font-family:sans-serif;-inkscape-font-specification:'sans-serif, Bold';font-variant-ligatures:normal;font-variant-caps:normal;font-variant-numeric:normal;font-feature-settings:normal;text-align:start;letter-spacing:0px;word-spacing:0px;writing-mode:lr-tb;text-anchor:start;fill:#ffffff;fill-opacity:1;stroke:none;stroke-width:2;stroke-miterlimit:4;stroke-dasharray:none"
       xml:space="preserve"><tspan
         id="tspan981"
         style="font-style:normal;font-variant:normal;font-weight:bold;font-stretch:normal;font-size:7.03021px;font-family:sans-serif;-inkscape-font-specification:'sans-serif, Bold';font-variant-ligatures:normal;font-variant-caps:normal;font-variant-numeric:normal;font-feature-settings:normal;text-align:start;writing-mode:lr-tb;text-anchor:start;opacity:1;stroke-width:2;stroke-miterlimit:4;stroke-dasharray:none"
         y="275.9938"
         x="1097.3717"
         sodipodi:role="line">fedpkg</tspan></text><g
       id="g2127"
       transform="translate(0,-2.1166667)"><rect
         y="208.64635"
         x="754.32996"
         height="16.994558"
         width="89.479919"
         id="rect1138"
         style="fill:none;stroke:#ffffff;stroke-width:2;stroke-linejoin:round;stroke-miterlimit:4;stroke-dasharray:none;stroke-opacity:1;paint-order:normal" /><text
         id="text1142"
         y="219.77995"
         x="771.93604"
         style="font-style:normal;font-variant:normal;font-weight:bold;font-stretch:normal;font-size:7.03021px;line-height:1.25;font-family:sans-serif;-inkscape-font-specification:'sans-serif, Bold';font-variant-ligatures:normal;font-variant-caps:normal;font-variant-numeric:normal;font-feature-settings:normal;text-align:start;letter-spacing:0px;word-spacing:0px;writing-mode:lr-tb;text-anchor:start;fill:#ffffff;fill-opacity:1;stroke:none;stroke-width:0.7;stroke-miterlimit:4;stroke-dasharray:none"
         xml:space="preserve"><tspan
           id="tspan1140"
           style="font-style:normal;font-variant:normal;font-weight:bold;font-stretch:normal;font-size:7.03021px;font-family:sans-serif;-inkscape-font-specification:'sans-serif, Bold';font-variant-ligatures:normal;font-variant-caps:normal;font-variant-numeric:normal;font-feature-settings:normal;text-align:start;writing-mode:lr-tb;text-anchor:start;fill:#ffffff;stroke-width:0.7;stroke-miterlimit:4;stroke-dasharray:none"
           y="219.77995"
           x="771.93604"
           sodipodi:role="line">GitLab webhook</tspan></text><path
         style="fill:#ffffff;stroke-width:0.999999"
         d="m 762.73356,221.98978 c -0.25979,-0.18716 -4.38917,-3.18759 -4.68678,-3.40544 -0.20968,-0.15348 -0.26821,-0.20513 -0.31942,-0.2818 -0.0808,-0.12107 -0.12172,-0.26921 -0.11089,-0.40183 0.006,-0.0719 0.12588,-0.46108 0.42982,-1.39394 0.23192,-0.71179 0.62291,-1.91584 0.86887,-2.67566 0.24595,-0.75983 0.46427,-1.41113 0.48514,-1.44732 0.0449,-0.0779 0.11757,-0.14243 0.20531,-0.18243 0.0736,-0.0335 0.24401,-0.0395 0.32713,-0.0114 0.0778,0.0263 0.17406,0.10023 0.22035,0.16922 0.025,0.0373 0.24597,0.69356 0.58789,1.7461 l 0.54784,1.68638 1.70713,2.8e-4 1.70713,2.8e-4 0.54758,-1.6865 c 0.34381,-1.0589 0.56255,-1.70878 0.5878,-1.74637 0.0465,-0.0692 0.14272,-0.14311 0.22051,-0.16939 0.0835,-0.0282 0.25352,-0.0221 0.32816,0.0118 0.086,0.0391 0.17682,0.12063 0.21239,0.19079 0.0159,0.0314 0.28754,0.85383 0.60361,1.82763 0.31606,0.9738 0.70724,2.17785 0.86928,2.67567 0.20741,0.63718 0.29705,0.93466 0.3028,1.00489 0.0179,0.21819 -0.0862,0.42844 -0.28612,0.57806 -0.0633,0.0474 -1.21157,0.88223 -2.55175,1.85524 l -2.43669,1.76913 -0.0964,0.006 -0.0963,0.006 z m 1.03127,-3.3115 c 0.41782,-1.28604 0.76306,-2.34717 0.76719,-2.35809 0.006,-0.0158 -0.30586,-0.0199 -1.52653,-0.0199 -1.21639,0 -1.53416,0.004 -1.53455,0.0199 -5.1e-4,0.029 1.5154,4.6961 1.52559,4.69622 0.005,4e-5 0.35047,-1.05211 0.7683,-2.33813 z m -2.15374,1.82612 c -0.0301,-0.0371 -0.71436,-0.91425 -1.52058,-1.94919 -0.80623,-1.03494 -1.4821,-1.89876 -1.50193,-1.91961 l -0.0361,-0.0379 -0.21581,0.65925 c -0.11869,0.36259 -0.2158,0.67361 -0.2158,0.69117 0,0.0175 0.0126,0.0475 0.0281,0.0666 0.0295,0.0365 3.47913,2.55321 3.50302,2.55572 0.008,0.001 -0.0108,-0.0289 -0.0409,-0.066 z m 4.46535,-1.19145 c 0.93887,-0.68059 1.72668,-1.25824 1.7507,-1.28367 0.024,-0.0254 0.0437,-0.0613 0.0437,-0.0796 0,-0.0184 -0.0971,-0.33009 -0.21581,-0.69268 l -0.2158,-0.65925 -0.0361,0.0379 c -0.0199,0.0208 -0.70973,0.90254 -1.53309,1.95931 -0.82337,1.05677 -1.50855,1.93513 -1.52265,1.95192 -0.0208,0.0247 -0.0211,0.028 -0.002,0.017 0.0131,-0.007 0.79198,-0.57033 1.73084,-1.25092 z m -4.46724,-0.89322 -0.68632,-2.11145 -0.96568,-0.004 c -0.59156,-0.003 -0.96361,0.002 -0.96034,0.0107 0.008,0.0221 3.28893,4.22602 3.29416,4.22079 0.003,-0.003 -0.30435,-0.95465 -0.68182,-2.11595 z m 3.75192,1.9e-4 c 0.89968,-1.15267 1.6359,-2.10117 1.63605,-2.10779 1.6e-4,-0.007 -0.43355,-0.0102 -0.96377,-0.008 l -0.96405,0.004 -0.6869,2.11195 c -0.3778,1.16158 -0.68714,2.11517 -0.68741,2.1191 -10e-4,0.0158 0.0886,-0.0984 1.66608,-2.11942 z m -4.61203,-2.64757 c -0.004,-0.0109 -0.21796,-0.6701 -0.47608,-1.46487 -0.5297,-1.63096 -0.48336,-1.49144 -0.49237,-1.48242 -0.007,0.007 -0.96106,2.94224 -0.96106,2.9577 0,0.005 0.43567,0.009 0.96815,0.009 0.76754,0 0.96673,-0.004 0.96136,-0.0199 z m 6.42301,0.008 c -10e-6,-0.0174 -0.9524,-2.9466 -0.96077,-2.95497 -0.009,-0.009 0.0358,-0.14517 -0.47646,1.43452 -0.24922,0.76856 -0.46325,1.42775 -0.47562,1.46487 l -0.0225,0.0675 h 0.96768 c 0.53222,0 0.96767,-0.005 0.96766,-0.0119 z"
         id="path2117" /></g></g></svg>
