<?xml version="1.0" encoding="UTF-8" standalone="no"?>
<svg
   xmlns:dc="http://purl.org/dc/elements/1.1/"
   xmlns:cc="http://creativecommons.org/ns#"
   xmlns:rdf="http://www.w3.org/1999/02/22-rdf-syntax-ns#"
   xmlns:svg="http://www.w3.org/2000/svg"
   xmlns="http://www.w3.org/2000/svg"
   xmlns:sodipodi="http://sodipodi.sourceforge.net/DTD/sodipodi-0.dtd"
   xmlns:inkscape="http://www.inkscape.org/namespaces/inkscape"
   version="1.1"
   id="svg2"
   width="1175.6439"
   height="2625.0051"
   viewBox="0 0 1175.6439 2625.0051"
   sodipodi:docname="revert-and-regenerate-upstream-release.svg"
   inkscape:version="1.0.1 (3bc2e813f5, 2020-09-07)">
  <metadata
     id="metadata8">
    <rdf:RDF>
      <cc:Work
         rdf:about="">
        <dc:format>image/svg+xml</dc:format>
        <dc:type
           rdf:resource="http://purl.org/dc/dcmitype/StillImage" />
        <dc:title></dc:title>
      </cc:Work>
    </rdf:RDF>
  </metadata>
  <defs
     id="defs6" />
  <sodipodi:namedview
     pagecolor="#ffffff"
     bordercolor="#666666"
     borderopacity="1"
     objecttolerance="10"
     gridtolerance="10"
     guidetolerance="10"
     inkscape:pageopacity="0"
     inkscape:pageshadow="2"
     inkscape:window-width="1920"
     inkscape:window-height="1016"
     id="namedview4"
     showgrid="false"
     inkscape:zoom="0.12724359"
     inkscape:cx="-2377.3935"
     inkscape:cy="1177.6956"
     inkscape:window-x="0"
     inkscape:window-y="0"
     inkscape:window-maximized="1"
     inkscape:current-layer="g10"
     inkscape:document-rotation="0" />
  <g
     inkscape:groupmode="layer"
     inkscape:label="Image"
     id="g10"
     transform="translate(-9148.5881,-296.15274)">
    <path
       style="fill:#000000;stroke-width:2.54509"
       d="m 10221.986,2920.0308 c -15.267,-4.6682 -27.595,-13.8287 -32.643,-24.2574 -6.392,-13.2047 -6.386,-17.7579 0.05,-26.7879 7.17,-10.0707 19.097,-16.728 36.222,-20.2194 12.213,-2.4899 16.938,-2.314 28.553,1.0629 7.655,2.2251 16.817,6.7327 20.36,10.0161 5.573,5.1642 6.442,8.124 6.442,21.9211 0,14.8043 -0.615,16.53 -8.547,24.0119 -11.726,11.0586 -37.268,18.2773 -50.432,14.2527 z m 30.984,-40.801 c 0,-3.2476 -12.791,-3.2476 -17.816,0 -2.795,1.8067 -0.922,2.4776 6.999,2.5061 5.949,0.026 10.817,-1.1063 10.817,-2.5061 z m -26.114,-104.9849 1.263,-56.6282 -9.463,10.8834 c -14.417,16.5789 -30.017,22.9203 -36.669,14.9053 -3.487,-4.2015 0.08,-7.7205 10.313,-10.1598 9.645,-2.3 25.103,-20.9947 36.486,-44.1245 5.376,-10.9235 11.336,-21.7095 13.243,-23.9688 3.087,-3.6573 2.297,-4.265 -7.209,-5.5402 -12.5,-1.6764 -22.449,-8.3231 -27.31,-18.2426 -2.871,-5.8621 -2.908,-9.6907 -0.218,-22.3744 3.801,-17.9126 14.523,-30.5547 29.745,-35.0692 12.989,-3.8525 21.06,-0.3747 27.376,11.7964 3.305,6.3691 8.547,11.4944 14.739,14.4098 21.353,10.0547 17.247,29.383 -9.031,42.5144 -8.481,4.2381 -17.037,7.7058 -19.013,7.7058 -2.922,0 -2.846,0.7475 0.406,3.9993 2.863,2.8638 3.999,8.9908 3.999,21.5753 0,20.6352 7.66,43.5561 21.548,64.4797 9.989,15.0471 10.571,16.8394 5.478,16.8394 -8.788,0 -33.475,-43.6598 -36.351,-64.2859 l -1.86,-13.3394 -1.939,10.1805 c -1.067,5.5991 -2.618,30.2229 -3.448,54.7193 -1.688,49.8392 -5.207,76.3526 -10.13,76.3526 -2.538,0 -2.953,-11.9898 -1.957,-56.6282 z m 27.76,-127.2544 c 21.404,-5.7218 34.834,-25.8219 19.912,-29.8004 -2.84,-0.7573 -9.247,-4.5264 -14.237,-8.3759 -18.549,-14.3069 -39.268,-6.9379 -43.418,15.4421 -2.63,14.1747 6.366,24.3443 22.698,25.6619 1.73,0.1399 8.5,-1.1779 15.045,-2.9277 z m -218.273,35.6313 c -12.102,-16.4415 -32.264,-59.5704 -37.0714,-79.2978 -3.694,-15.1537 -3.8751,-20.7725 -1.3156,-40.7213 1.6319,-12.7281 5.932,-35.1676 9.554,-49.8655 9.297,-37.7243 8.221,-57.9763 -3.982,-74.9195 -12.9018,-17.9143 -39.2046,-34.876 -77.602,-50.0435 -36.5554,-14.4396 -39.4492,-16.1114 -39.4492,-22.7922 0,-5.9403 3.266,-6.8227 36.8572,-9.9585 33.6293,-3.1396 49.3945,-7.9888 59.4672,-18.291 18.3088,-18.7268 9.9452,-47.7021 -24.1669,-83.7313 -31.2911,-33.0496 -33.674,-59.9107 -8.7359,-98.4939 13.3542,-20.6628 31.1245,-32.6189 55.0686,-37.0531 26.859,-4.9737 54.575,1.2763 54.575,12.3059 0,4.8477 -3.429,4.7484 -13.361,-0.3874 -10.361,-5.3579 -40.039,-3.4539 -55.9639,3.5906 -22.9676,10.1596 -43.9378,38.7435 -46.9243,63.9617 -1.9728,16.6583 4.4629,29.7149 27.0818,54.9408 28.6499,31.951 37.1284,53.1457 30.5964,76.4786 -6.0663,21.6653 -23.6577,30.9823 -69.9282,37.0358 l -24.6463,3.2247 11.0372,4.6839 c 6.0702,2.5764 13.3274,5.434 16.1273,6.3503 2.7998,0.9162 14.8341,6.5401 26.7431,12.4973 27.3557,13.6842 50.7799,34.5137 59.9959,53.35 6.183,12.6378 6.702,15.7996 5.216,31.7914 -0.907,9.7668 -4.681,28.8987 -8.385,42.5155 -5.491,20.1904 -6.778,30.6264 -6.975,56.5711 l -0.242,31.8136 11.242,26.7234 c 6.184,14.6979 15.165,33.8814 19.959,42.6302 9.948,18.1587 7.091,21.2074 -4.772,5.0902 z m 201.896,-128.57 c -2.351,-5.72 -2.361,-119.7619 -0.02,-138.0279 l 1.799,-13.998 -6.625,7.6352 c -7.422,8.5531 -18.382,16.5009 -22.788,16.5263 -7.747,0.046 -4.33,-8.1944 9.21,-22.2035 8.128,-8.41 16.636,-19.2071 18.908,-23.9936 5.661,-11.9303 18.915,-27.5936 23.35,-27.5936 2.006,0 8.645,7.7308 14.751,17.1793 6.107,9.4487 14.689,21.6317 19.071,27.0735 7.375,9.1561 11.08,23.4458 5.574,21.4952 -1.316,-0.4665 -9.917,-10.5833 -19.111,-22.4815 -22.05,-28.5343 -22.059,-28.5452 -23.639,-26.9665 -0.749,0.7503 -1.676,5.1205 -2.057,9.7116 -0.381,4.5908 -3.198,21.3629 -6.259,37.271 -4.907,25.4997 -5.461,35.5152 -4.684,84.5972 0.691,43.7055 0.175,55.9433 -2.397,56.9298 -1.803,0.6912 -4.093,-0.7282 -5.09,-3.1545 z m -488.7412,-95.4412 c -12.4347,-3.98 -23.3615,-15.1835 -23.3615,-23.9534 0,-9.6179 6.5162,-18.6246 13.506,-18.6682 11.6878,-0.074 17.035,-2.951 17.035,-9.1696 0,-4.8052 -1.3489,-6.066 -6.4892,-6.066 -19.0321,0 -31.7006,-19.9837 -20.0525,-31.6319 5.5539,-5.5539 17.2132,-4.9985 22.7159,1.0819 3.5084,3.8767 5.4119,4.4061 8.0298,2.2334 2.5476,-2.1145 4.4108,-2.0346 7.2357,0.3097 2.9215,2.4247 3.4514,6.4843 2.2831,17.4911 l -1.5214,14.3334 7.8188,-8.835 c 4.3004,-4.8591 8.5321,-12.083 9.4041,-16.0532 1.2249,-5.576 2.8347,-7.0399 7.0775,-6.4355 4.566,0.6505 5.3539,2.2036 4.6724,9.2086 -0.4508,4.6342 0.5067,10.0242 2.1279,11.9775 4.336,5.2248 0.4722,9.3639 -7.2769,7.7954 -5.7205,-1.1581 -7.8539,0.224 -13.9123,9.0123 -6.7225,9.7524 -6.9917,11.1425 -4.4538,22.9774 3.5588,16.5935 3.4328,18.8871 -1.2977,23.6176 -4.5102,4.5102 -11.1834,4.7298 -23.5409,0.7745 z m 14.7343,-12.682 c -0.044,-1.7497 -2.8777,-6.3601 -6.2965,-10.2454 -4.8553,-5.5176 -7.6289,-6.7094 -12.6692,-5.4445 -10.8219,2.7162 -10.5142,6.5752 1.1606,14.5651 7.3634,5.0389 17.9209,5.7061 17.8051,1.1248 z m -15.1901,-62.9908 c -2.6356,-4.9251 -10.1803,-7.1884 -10.1803,-3.0541 0,3.2047 5.7653,8.1443 9.5064,8.1443 2.6095,0 2.7657,-1.1815 0.6739,-5.0902 z m 77.8975,26.5152 c -0.8497,-2.2142 -1.5448,-11.1474 -1.5448,-19.8517 0,-17.0411 -2.6685,-21.9341 -11.962,-21.9341 -4.5472,0 -5.8537,-1.4201 -5.8537,-6.3627 0,-5.575 1.1028,-6.3627 8.9078,-6.3627 6.8837,0 8.9079,-1.0417 8.9079,-4.5847 0,-7.1023 11.9705,-46.5802 15.0613,-49.6709 1.9729,-1.973 3.5344,-1.9742 5.5043,0 1.9694,1.9696 0.8863,10.335 -3.8179,29.4873 -3.612,14.7063 -6.5674,27.8198 -6.5674,29.1421 0,1.3219 5.1538,6.1048 11.4527,10.6285 6.2993,4.5236 11.4531,9.8716 11.4531,11.8842 0,4.551 -0.5947,4.543 -11.8454,-0.1578 -5.0252,-2.0997 -9.5697,-3.8176 -10.0986,-3.8176 -0.5291,0 -0.9618,8.017 -0.9618,17.8157 0,13.5312 -0.8526,17.8155 -3.5453,17.8155 -1.9501,0 -4.2406,-1.8116 -5.0902,-4.0257 z m -175.8833,-14.0365 c -13.2971,-6.807 -16.2806,-7.4606 -23.0865,-5.0578 -25.9633,9.1662 -54.2401,-3.3134 -54.4577,-24.0339 -0.1808,-17.1959 17.0683,-25.284 30.583,-14.3403 6.6706,5.4016 4.7339,11.1136 -3.5474,10.4613 -9.867,-0.7776 -11.846,0.064 -11.846,5.0367 0,10.3419 20.3816,19.4022 29.9648,13.3202 2.4762,-1.5716 2.0254,-3.1579 -1.9088,-6.7183 -5.6158,-5.0823 -6.6559,-14.1189 -2.5156,-21.8549 1.9907,-3.7202 5.3661,-4.9229 13.8132,-4.9229 9.1489,0 12.1729,1.2639 16.6546,6.9612 5.0659,6.4404 5.6096,11.9846 2.2725,23.167 -0.559,1.8727 2.6029,5.3956 7.0262,7.8287 14.0423,7.7243 21.226,12.9865 21.226,15.5484 0,4.4842 -8.6503,2.554 -24.1783,-5.3954 z m -12.8522,-27.5441 c 2.1636,-3.5008 -5.8203,-10.3853 -10.1271,-8.7324 -4.6706,1.792 -4.657,2.1605 0.2552,7.073 4.5335,4.5333 7.7602,5.0759 9.8719,1.6594 z m 48.178,21.55 c -2.2755,-5.9304 1.2774,-9.0485 9.9996,-8.776 12.7405,0.3979 20.746,3.403 21.6564,8.1293 0.7144,3.7102 -1.4257,4.3424 -14.7008,4.3424 -11.2351,0 -15.9298,-1.0234 -16.9552,-3.6957 z m -188.1481,-9.1228 c -5.3487,-4.2506 -11.2967,-7.1253 -13.2177,-6.388 -4.0629,1.5592 -20.2111,-4.7196 -26.2922,-10.2234 -3.7022,-3.3503 -4.5456,-3.3467 -7.348,0.03 -4.813,5.7994 -19.2915,7.4858 -32.5056,3.786 -9.004,-2.5209 -12.0721,-2.5932 -12.8358,-0.3024 -0.5518,1.6559 -2.9124,3.0053 -5.2453,2.9989 -4.1691,0 -29.1844,-9.5718 -35.4191,-13.5363 -5.5234,-3.5121 -3.6018,-9.3577 3.0762,-9.3577 h 6.2577 l -8.0294,-12.9161 c -8.5415,-13.7406 -10.4432,-29.1677 -4.092,-33.1927 1.8831,-1.1935 7.234,-2.1876 11.891,-2.2089 10.5364,-0.048 23.3464,11.6925 23.3464,21.3985 0,8.7821 -6.4229,8.5177 -10.6966,-0.4405 -3.8736,-8.1196 -17.2994,-11.638 -17.2994,-4.5334 0,5.2198 6.4688,15.6503 16.2282,26.1666 9.0786,9.7829 11.138,10.2114 12.2268,2.5451 1.9094,-13.4437 36.1586,-21.44 47.5756,-11.108 3.0358,2.7472 7.1411,3.5084 13.4239,2.4889 7.1129,-1.1543 9.4132,-0.5241 10.7441,2.9441 1.0371,2.7026 0.1196,5.5636 -2.3662,7.3813 -3.6851,2.6946 -3.6306,3.4656 0.5922,8.3631 2.5583,2.9673 7.2275,6.144 10.3758,7.0595 4.5746,1.3303 6.2235,0.3523 8.2087,-4.869 4.6445,-12.2164 15.3353,-7.1995 15.3353,7.1965 0,3.1231 3.3953,8.9312 7.5447,12.9066 7.4429,7.1306 8.04,11.5397 1.563,11.5397 -1.8246,0 -7.6938,-3.4778 -13.0423,-7.7283 z m -55.2305,-25.7477 c 2.0084,-2.0084 2.1471,-4.4073 0.4393,-7.5981 -2.0765,-3.88 -4.7094,-4.4523 -15.68,-3.4078 -16.1446,1.5369 -19.5524,4.3813 -11.7754,9.8288 6.802,4.7642 22.7348,5.4585 27.0161,1.1771 z m 95.5277,26.6116 c -6.1058,-8.8935 -16.0018,-33.0214 -16.0018,-39.0143 0,-5.5373 6.4068,-8.3433 9.6711,-4.2355 1.3241,1.6664 3.9115,7.2776 5.7496,12.4691 l 3.3414,9.4392 4.5797,-7.5304 c 5.4406,-8.9463 6.9781,-9.1661 15.7637,-2.2552 9.7192,7.645 8.9139,16.3235 -0.9292,10.0167 -3.1519,-2.0195 -4.2737,0.092 -6.4324,12.1065 -3.0476,16.9594 -8.2411,19.9301 -15.7421,9.0039 z m 255.2989,-20.4586 c -0.8368,-0.8365 -1.5214,-3.7049 -1.5214,-6.3739 0,-5.9809 8.4654,-5.1413 9.6397,0.9559 0.7991,4.1493 -5.3101,8.2263 -8.1183,5.418 z m 431.851,-34.135 c -14.121,-6.8493 -27.736,-22.2128 -31.249,-35.2603 -2.375,-8.8168 -2.095,-11.9342 1.771,-19.7044 6.825,-13.7195 15.443,-18.8005 34.478,-20.3283 39.291,-3.1539 76.286,23.898 68.45,50.0536 -7.611,25.4031 -45.952,38.578 -73.45,25.2394 z m 49.999,-13.7956 c 17.12,-11.329 18.109,-24.68 2.786,-37.5741 -10.284,-8.6531 -12.771,-8.5495 -12.771,0.5324 0,7.335 -5.358,14.4652 -8.506,11.3182 -0.921,-0.921 -1.674,-5.5508 -1.674,-10.2882 0,-7.5131 -1.193,-9.1117 -9.333,-12.5129 -7.728,-3.2287 -11.199,-3.3772 -20.181,-0.8626 -15.354,4.2987 -22.481,12.5682 -20.636,23.9399 4.81,29.6444 43.058,43.4862 70.315,25.4473 z m -601.423,-19.5509 c -4.4573,-4.5494 -10.5731,-11.4885 -13.5913,-15.4201 l -5.4872,-7.1487 -12.4098,12.8751 c -10.1881,10.5698 -13.9749,12.8733 -21.1494,12.8657 -20.3318,-0.026 -38.9868,-23.5956 -33.0081,-41.711 6.3431,-19.2197 32.9844,-15.8517 46.5183,5.8804 5.2017,8.3528 5.514,8.4831 7.8412,3.2677 1.8004,-4.035 0.9547,-8.8466 -3.2892,-18.7117 -8.0296,-18.6654 -4.4725,-40.3035 6.0781,-36.9733 3.4597,1.0921 8.4395,17.0707 10.5273,33.7802 1.5152,12.1293 3.7644,17.0595 12.898,28.2729 10.0016,12.2795 18.7751,26.2493 18.7751,29.8953 0,3.7737 -6.4345,0.5465 -13.703,-6.8725 z m -44.9511,-23.1692 c -6.7219,-11.3926 -20.8367,-19.1591 -26.4111,-14.533 -8.3614,6.9395 -3.2066,21.5125 9.4992,26.8548 6.7397,2.834 9.1323,2.7981 14.9748,-0.2239 l 6.9536,-3.5958 z m -67.3278,-4.2307 c -15.0639,-11.1075 -15.7884,-11.2276 -24.3361,-4.0352 -4.3274,3.6412 -9.4305,6.6205 -11.3401,6.6205 -7.473,0 -6.3785,-5.7714 2.5629,-13.5159 l 9.3717,-8.1173 -7.1748,-13.8098 c -13.2587,-25.5192 -8.4179,-53.635 9.2341,-53.635 14.7566,0 27.9998,27.0759 22.7604,46.5339 -1.5006,5.5724 -4.0749,12.3731 -5.7208,15.1129 -2.6342,4.3848 -1.3924,6.4261 10.3691,17.0447 7.349,6.6349 13.3618,12.8314 13.3618,13.7699 0,4.0057 -9.6553,0.9865 -19.0882,-5.9687 z m -9.0673,-57.9313 c -3.5339,-15.669 -13.6211,-21.3856 -16.6241,-9.4211 -1.7914,7.1382 2.8313,28.4889 7.3462,33.9293 4.5211,5.4472 11.7356,-13.6109 9.2779,-24.5082 z m -110.5517,39.2336 c -20.1607,-9.3683 -30.4909,-33.4865 -19.1852,-44.7922 5.1251,-5.1251 7.1899,-5.4458 25.1101,-3.8997 42.9613,3.707 62.5574,27.0976 38.0119,45.3718 -8.8082,6.5577 -33.0301,8.3881 -43.9368,3.3201 z m 35.7281,-12.9051 c 11.2343,-7.3612 6.2485,-17.8609 -10.9135,-22.9829 -4.6431,-1.3856 -5.7265,-0.7136 -5.7265,3.5526 0,6.8049 -1.5372,6.6346 -11.9734,-1.3255 -12.6854,-9.6755 -22.6961,-3.2253 -16.4092,10.5731 6.8825,15.1052 29.6508,20.2546 45.0226,10.1827 z m 751.9768,-41.7112 c 0,-1.1506 2.911,-19.1889 6.471,-40.0852 4.401,-25.8351 7.215,-55.3122 8.793,-92.1135 2.396,-55.857 8.39,-90.5406 16.862,-97.5717 6.365,-5.283 6.765,-0.469 1.437,17.3033 -6.624,22.0925 -7.724,31.5185 -9.298,79.6693 -1.313,40.1869 -3.153,58.9592 -10.534,107.53 -3.588,23.6114 -4.813,27.3596 -8.944,27.3596 -2.633,0 -4.787,-0.9414 -4.787,-2.0918 z m -15.271,-180.278 c 0,-2.3175 2.933,-8.0587 6.517,-12.7585 13.592,-17.8196 22.855,-44.5722 27.609,-79.741 2.536,-18.7578 3.586,-21.6333 7.891,-21.6333 3.932,0 6.604,4.5605 12.818,21.8796 10.871,30.2924 18.912,42.9344 38.083,59.8709 9.086,8.0267 16.521,16.1086 16.521,17.9597 0,4.757 -1.534,4.3074 -13.54,-3.9675 -16.834,-11.6041 -37.047,-34.63 -44.294,-50.4595 l -6.656,-14.5396 -5.898,23.4464 c -5.725,22.7615 -17.739,50.634 -25.733,59.7026 -4.994,5.6651 -13.318,5.8153 -13.318,0.2392 z m 18.828,-144.492 c -35.251,-15.3459 -51.611,-75.2848 -26.845,-98.3576 12.672,-11.8066 23.841,-12.7776 40.8,-3.5473 17.008,9.2568 29.572,28.3874 29.572,45.0277 0,10.6466 -1.105,13.548 -7.141,18.7392 -8.189,7.0441 -27.218,8.8598 -27.218,2.5973 0,-3.881 5.345,-6.6351 12.875,-6.6351 7.165,0 12.922,-10.3549 11.028,-19.8313 -2.225,-11.1264 -16.757,-27.1502 -29.101,-32.0892 -9.564,-3.8266 -10.963,-3.8328 -17.317,-0.079 -20.653,12.2002 -20.559,45.0267 0.198,68.6074 12.353,14.0332 21.423,19.0238 34.573,19.0238 13.416,0 22.021,-7.2005 25.603,-21.4215 3.911,-15.5344 3.595,-28.7592 -1.129,-47.2003 -4.448,-17.3599 -3.755,-25.086 1.388,-15.4765 15.799,29.5205 11.992,75.5771 -7.317,88.4934 -9.977,6.6753 -27.416,7.6131 -39.967,2.1494 z m -655.5299,-28.2531 c -3.8214,-2.0752 -8.0509,-7.5014 -9.6693,-12.4053 -2.8007,-8.4856 -1.9167,-12.2833 7.0651,-30.3572 0.5786,-1.1641 -1.0791,-1.8913 -3.6834,-1.6159 -14.7929,1.5642 -23.8416,-6.0103 -23.7844,-19.909 0.046,-10.8756 1.6214,-13.9102 9.3379,-17.9716 11.9227,-6.2757 20.0642,-0.8638 25.9746,17.2663 l 4.1737,12.8034 15.2325,-10.1271 c 16.828,-11.188 16.3043,-10.9976 21.3937,-7.7765 3.0727,1.9446 2.9513,3.3042 -0.8065,9.039 -4.8653,7.4257 -2.7789,12.5002 6.3278,15.3905 2.6731,0.8485 4.8603,3.1833 4.8603,5.1889 0,6.2749 -13.8898,4.3327 -21.1848,-2.9622 l -6.6083,-6.6083 -7.9847,5.6856 c -6.959,4.9553 -7.7643,6.7035 -6.2673,13.6074 4.7367,21.8447 4.7278,27.7224 -0.048,31.2147 -5.6844,4.1566 -5.8319,4.1518 -14.3286,-0.4627 z m 6.0631,-16.4677 c -0.6164,-4.1994 -2.1358,-7.6353 -3.3767,-7.6353 -2.6067,0 -2.9491,5.4131 -0.7115,11.2447 2.6123,6.8077 5.2724,4.459 4.0882,-3.6094 z m -13.7816,-49.4065 c -0.4177,-2.9223 -2.4614,-5.313 -4.542,-5.313 -4.2068,0 -6.3755,7.0686 -4.0375,13.1607 2.2301,5.8112 9.5716,-0.9042 8.5795,-7.8477 z m 421.0617,59.4451 c -11.0239,-8.1069 -22.1696,-24.2497 -29.438,-42.6356 -7.0884,-17.9322 -8.1279,-50.933 -2.6634,-84.477 2.6891,-16.5006 4.7692,-42.0368 4.7692,-58.5371 0,-27.6196 -0.4136,-29.9857 -7.3388,-41.9939 -15.108,-26.1955 -49.9008,-49.491 -87.281,-58.4395 -27.2351,-6.5198 -27.5193,-13.6145 -0.8149,-20.3391 24.8956,-6.2693 60.7883,-20.646 74.8679,-29.9883 19.7095,-13.0778 27.6843,-24.7211 28.954,-42.2751 1.1177,-15.4581 0.9444,-16.0177 -19.5407,-63.1232 -14.6061,-33.5873 -9.9274,-55.4901 14.3892,-67.3583 29.6559,-14.474 79.8942,-7.9995 65.0672,8.385 -5.432,6.0029 -8.494,5.8792 -8.494,-0.3431 0,-7.4601 -14.6,-9.2753 -34.7032,-4.3144 -31.7963,7.8465 -40.1846,20.1833 -31.7259,46.6619 2.706,8.4706 7.986,21.4513 11.7336,28.8462 20.3734,40.2048 18.4063,70.2119 -6.0501,92.262 -11.6598,10.513 -42.696,26.3653 -69.9432,35.7251 l -17.4339,5.9887 15.9071,5.7999 c 31.8991,11.6308 63.2617,36.4485 75.7832,59.9671 6.2949,11.8212 6.7766,14.9857 6.7901,44.539 0,20.6882 -1.6408,40.2686 -4.7156,55.992 -9.9598,50.9149 -1.671,94.693 23.1598,122.3097 6.3183,7.028 10.9751,13.2915 10.3481,13.9188 -0.629,0.6274 -5.8605,-2.3295 -11.6267,-6.5708 z m -329.7221,-37.2286 c -3.2221,-10.9879 -4.3569,-12.2589 -10.9431,-12.2589 -5.6931,0 -7.5322,-1.296 -8.1652,-5.7539 -0.6632,-4.6726 0.6847,-6.0543 7.1708,-7.3515 l 7.9875,-1.5976 -0.7459,-27.4932 c -0.4103,-15.1215 0.036,-28.2752 0.9911,-29.2306 0.9554,-0.9554 3.5043,-1.0588 5.6646,-0.229 4.2729,1.6397 5.209,10.9038 4.1546,41.1156 l -0.6218,17.8155 11.6501,6.0803 c 16.9475,8.8447 15.0728,17.0861 -2.3776,10.4516 -6.663,-2.5334 -6.717,-2.4601 -5.9558,8.0806 1.0967,15.1904 -4.3956,15.4226 -8.8093,0.3721 z m -202.4537,2.0064 c -18.4784,-6.1999 -21.5445,-6.586 -28.6331,-3.6055 -21.3446,8.9748 -46.9042,-0.7571 -54.5466,-20.7684 -4.0631,-10.6397 -4.0741,-11.8619 -0.1603,-17.8362 6.4925,-9.9091 29.5362,-7.1366 29.5362,3.5531 0,5.781 -3.9886,9.1452 -6.3372,5.345 -2.4672,-3.9924 -11.4783,-3.0576 -11.4783,1.1909 0,2.0776 3.207,7.3667 7.1267,11.7537 5.472,6.1242 9.3998,8.0541 16.9152,8.3118 10.8276,0.371 13.9203,-3.3328 7.851,-9.4019 -5.5777,-5.578 -7.7689,-18.6836 -3.9023,-23.3428 1.7456,-2.1029 7.0939,-3.8237 11.8855,-3.8237 12.2144,0 21.2059,9.4036 21.2059,22.1779 0,11.0098 2.4726,13.1858 24.2349,21.3284 7.6678,2.8687 13.9415,6.1566 13.9415,7.3059 0,4.9613 -8.2855,4.3055 -27.6397,-2.1882 z m -21.7174,-29.744 c -0.8497,-2.2143 -1.5447,-4.5048 -1.5447,-5.0902 0,-0.5853 -2.468,-1.0644 -5.4847,-1.0644 -5.3234,0 -5.3493,0.1502 -0.8781,5.0902 5.5063,6.0843 10.0696,6.6987 7.9075,1.0644 z m -251.3298,25.7166 c -0.7968,-0.7966 -9.3374,-3.4759 -18.9792,-5.9535 -12.9204,-3.3198 -17.7701,-5.7473 -18.4407,-9.2295 -0.831,-4.3147 0.3588,-4.5756 13.7139,-3.006 11.6497,1.3693 14.1183,1.0585 12.1394,-1.5278 -15.1092,-19.745 -18.3713,-24.7948 -20.8385,-32.2588 -6.2902,-19.0298 -0.8486,-28.2522 16.6706,-28.2522 12.4603,0 19.4012,6.4657 18.2007,16.9541 -1.0868,9.4924 -8.1817,9.6647 -9.2677,0.224 -0.9081,-7.8908 -7.8997,-9.5589 -13.2162,-3.1531 -4.2082,5.0708 2.803,24.091 13.0152,35.3079 6.8009,7.4704 7.2242,7.6019 7.2944,2.2693 0.048,-3.7716 2.8353,-7.0886 8.3461,-9.9384 4.5493,-2.3526 11.4539,-6.6301 15.3436,-9.5059 6.6157,-4.8911 7.765,-4.9888 17.8156,-1.5142 14.6834,5.0759 22.1703,18.2115 17.208,30.1912 -5.7272,13.8271 -23.5407,18.9172 -41.2057,11.7746 -3.0413,-1.2294 -4.0948,-0.4209 -3.8176,2.9308 0.2637,3.1902 -1.6245,4.8628 -6.0753,5.3818 -3.552,0.4143 -7.1101,0.1017 -7.9066,-0.6953 z m 44.8198,-21.5961 c 5.6518,-6.2454 3.4393,-15.1707 -2.5322,-10.2147 -2.1065,1.7482 -8.4212,3.1788 -14.032,3.1788 -12.3219,0 -14.6567,2.68 -7.0046,8.0394 7.7854,5.4533 18.1238,5.0131 23.5688,-1.0035 z m 107.8727,13.267 c -5.1055,-6.124 -19.9815,-37.822 -19.9815,-42.5767 0,-6.9044 10.1598,-4.3234 14.7526,3.7479 4.5779,8.0447 6.8491,9.2753 9.4257,5.1064 2.8472,-4.6068 13.0054,-2.6573 18.9111,3.629 6.688,7.1192 5.1372,13.1131 -2.3553,9.1034 -7.3515,-3.9346 -7.648,-3.491 -7.648,11.446 0,11.9091 -0.7007,13.9979 -4.6957,13.9979 -2.5827,0 -6.3667,-2.0043 -8.4089,-4.4539 z m -30.1618,0.1039 c -2.0997,-0.7722 -5.6801,-3.0216 -7.9562,-4.9985 -3.58,-3.1094 -5.3595,-3.0127 -13.1792,0.7164 -7.7536,3.6976 -10.1771,3.8405 -17.0229,1.005 -9.1434,-3.7875 -20.3788,-18.8237 -20.3788,-27.2734 0,-7.8992 12.0607,-11.1082 16.8958,-4.4956 2.5162,3.4408 2.6521,5.4961 0.5325,8.0499 -2.184,2.6313 -1.4911,4.6045 2.9778,8.4802 3.203,2.7779 6.6162,5.051 7.5848,5.051 3.565,0 10.1854,-9.4657 10.1854,-14.5622 0,-4.3824 4.3707,-8.3436 9.2064,-8.3436 0.6353,0 3.3325,5.08 5.994,11.289 2.6613,6.2087 7.7744,13.2123 11.3622,15.5632 11.2119,7.3462 6.7043,14.2641 -6.2018,9.5186 z m 183.2938,-1.9546 c -2.5997,-3.1325 -2.5614,-4.6638 0.2011,-7.9915 2.748,-3.311 6.96,-3.889 21.5261,-2.9541 20.8857,1.3402 25.7163,3.2536 21.3863,8.4708 -1.826,2.2004 -7.8882,3.4328 -16.388,3.3312 -7.4195,-0.089 -15.7442,0.5544 -18.4992,1.4288 -3.0366,0.9636 -6.276,0.064 -8.2253,-2.2852 z m 135.7204,-35.7984 c -0.829,-2.1601 -0.8691,-4.5654 -0.089,-5.3452 2.2287,-2.2288 6.8462,1.5517 6.8462,5.6051 0,4.8837 -4.8547,4.6969 -6.7569,-0.2599 z m 603.7688,-11.0388 c -2.445,-3.9549 -4.581,-153.9211 -2.335,-163.9566 4.844,-21.6562 7.268,-8.2577 8.767,48.4689 0.842,31.8554 2.411,71.3759 3.486,87.8235 1.906,29.1352 1.822,29.9048 -3.289,29.9048 -2.885,0 -5.868,-1.0083 -6.629,-2.2406 z m -720.8205,-41.0541 -11.8654,-17.8441 -4.6806,7.6967 c -2.5742,4.2329 -8.6147,9.5725 -13.4232,11.8653 -7.4578,3.5565 -9.9146,3.6838 -16.7156,0.8669 -8.3122,-3.443 -18.6246,-15.2277 -21.43,-24.4899 -2.518,-8.3122 2.5186,-18.4228 10.1281,-20.3329 9.2652,-2.3252 22.8324,4.6303 27.8109,14.2576 8.7324,16.8864 11.9398,-1.5754 4.9561,-28.5266 -4.8138,-18.5769 -4.0816,-30.9111 1.9024,-32.0439 6.6272,-1.2548 12.6,13.1494 14.4836,34.9295 1.2561,14.522 3.4761,22.437 8.9804,32.0164 11.9183,20.7427 18.8453,35.5027 17.6178,37.54 -2.6624,4.4194 -6.5465,0.9357 -17.7645,-15.935 z m -31.7777,-9.8907 c 2.8496,-1.805 2.6184,-3.1516 -1.2725,-7.4138 -2.6149,-2.8646 -6.2308,-7.0082 -8.0358,-9.2082 -3.6657,-4.4681 -15.8066,-5.4884 -15.8066,-1.3285 0,4.5155 7.3406,17.1539 10.7632,18.5308 5.0779,2.0431 10.5606,1.8215 14.3517,-0.5803 z m -90.6724,14.6057 c -2.2347,-2.2346 -1.0286,-5.3726 4.9814,-12.9608 l 7.93,-10.0123 -8.3662,-16.3115 c -6.9897,-13.6274 -8.1489,-18.2387 -7.0461,-28.023 1.7352,-15.3947 6.3541,-19.6702 21.2497,-19.6702 24.9727,0 29.5307,21.3683 12.719,59.6281 -1.3195,3.0031 1.8722,6.5785 12.2572,13.731 12.7417,8.7757 15.9501,14.0221 8.5749,14.0221 -1.5273,0 -8.8291,-3.0645 -16.2265,-6.8101 l -13.4495,-6.8102 -7.5502,8.0828 c -8.2219,8.8016 -10.5973,9.6107 -15.0737,5.1341 z m 28.1636,-49.862 c 6.236,-17.3988 5.6806,-23.1005 -2.4489,-25.1409 -10.6044,-2.6616 -14.9353,1.8246 -14.4902,15.0089 0.4288,12.6962 4.4498,22.2211 9.3807,22.2211 1.7739,0 5.1751,-5.4401 7.5584,-12.0891 z m -76.3394,37.2789 c -4.4618,-1.2909 -11.6601,-6.6276 -15.9964,-11.8596 -10.2045,-12.3124 -10.063,-26.6647 0.3393,-34.3999 12.5047,-9.2987 43.1642,-4.9026 52.9981,7.5993 9.6179,12.2272 4.8652,28.7208 -10.5408,36.5804 -10.4318,5.3218 -14.5029,5.6379 -26.8002,2.0798 z m 25.7186,-17.7701 c 6.7575,-8.0305 6.8178,-13.421 0.1222,-10.8515 -2.1204,0.8137 -5.7323,-1.0218 -8.3347,-4.2355 -3.9565,-4.8864 -6.0703,-5.4221 -15.2646,-3.8686 -9.423,1.5921 -10.6673,2.5961 -10.6329,8.5782 0.104,18.063 22.0305,24.7338 34.1103,10.3774 z m 102.6447,-59.8103 c -0.8188,-0.819 -0.3057,-4.883 1.1404,-9.0313 4.2994,-12.3336 -2.1175,-46.951 -10.0704,-54.3251 -6.3792,-5.9153 -5.9842,-11.5074 0.8129,-11.5074 2.0173,0 3.6674,-1.7697 3.6674,-3.9331 0,-2.1633 2.931,-6.8644 6.5134,-10.4468 5.7843,-5.7842 7.8502,-6.3251 18.452,-4.8311 27.7671,3.9128 48.5073,20.8407 41.5233,33.8904 -5.3984,10.0875 -28.9926,20.5777 -35.0237,15.5724 -4.8354,-4.0129 -2.7255,-6.1479 13.3475,-13.5063 8.4217,-3.8556 13.7495,-7.7956 13.1278,-9.7086 -2.0364,-6.2662 -22.6409,-14.9615 -33.5568,-14.1611 -9.1447,0.6706 -10.4796,1.5772 -11.1742,7.5893 -0.5558,4.8101 0.7605,7.6571 4.4539,9.6337 6.1788,3.3068 6.917,7.7169 1.2922,7.7169 -3.3969,0 -3.7054,3.0182 -2.2017,21.55 1.2254,15.1018 0.792,23.8595 -1.4487,29.2685 -2.9811,7.197 -7.3696,9.7153 -10.8553,6.2296 z m 721.1001,-2.088 c -3.772,-4.546 29.765,-72.4966 39.601,-80.233 14.729,-11.5853 23.078,-6.3103 46.819,29.5769 17.629,26.6498 19.919,31.3272 15.326,31.3272 -4.807,0 -15.628,-11.8912 -28.736,-31.5815 -16.308,-24.4966 -20.337,-27.5378 -27.227,-20.5574 -5.384,5.4529 -22.005,38.1784 -29.45,57.9855 -5.109,13.5893 -11.717,19.0441 -16.333,13.4823 z m -779.2065,-13.6849 c -6.026,-5.3844 -8.239,-9.8606 -9.2325,-18.6756 -1.167,-10.3521 -0.4302,-12.5923 6.8765,-20.9145 5.2159,-5.9405 10.4318,-9.3203 14.3839,-9.3203 9.717,0 26.0557,9.5791 31.647,18.5544 15.706,25.2106 -20.9328,50.676 -43.6749,30.356 z m 31.3873,-10.0543 c 9.4942,-8.5561 3.6509,-19.8747 -12.7968,-24.7872 -4.3062,-1.2863 -7.0666,-0.2087 -10.7318,4.1887 -6.5183,7.8213 -6.3495,14.4467 0.5553,21.7966 6.2222,6.6234 14.7898,6.1768 22.9733,-1.1981 z m 201.6561,-44.5827 c -6.0253,-16.5998 -14.188,-45.0759 -17.6921,-61.7183 -5.9329,-28.1784 -5.5662,-27.3724 -11.1068,-24.4071 -3.2425,1.7352 -5.6267,1.6469 -7.5539,-0.2802 -4.2532,-4.2534 1.0975,-12.2164 8.2087,-12.2164 5.6669,0 6.0136,-0.9367 6.3576,-17.1794 0.5305,-25.0194 3.155,-34.995 9.2074,-34.995 5.669,0 5.9037,3.0585 2.6503,34.516 l -1.9903,19.2455 9.7983,3.0006 c 15.1059,4.626 37.5174,18.3402 34.6526,21.2049 -1.5715,1.5716 -9.2109,-0.2393 -21.2881,-5.0476 l -18.837,-7.4992 -0.8169,6.2222 c -0.8579,6.5357 0.2589,11.9801 10.8131,52.7099 3.576,13.8018 5.872,26.1135 5.1018,27.3597 -2.0292,3.2831 -6.1637,2.7787 -7.5047,-0.9156 z m -73.8375,-15.6866 c -4.6003,-11.01 -10.1822,-37.5866 -12.5155,-59.5898 -1.6648,-15.6982 -1.5624,-16.0825 4.063,-15.2706 6.6297,0.9568 9.1659,7.733 9.5433,25.4972 0.14,6.5663 1.399,12.6468 2.7989,13.5119 1.3998,0.865 2.5451,-0.058 2.5451,-2.0516 0,-7.0967 10.3019,-17.0365 17.657,-17.0365 7.9999,0 20.5193,8.6532 20.5193,14.1826 0,4.567 -4.528,4.5014 -12.7255,-0.1857 -3.4995,-2.0005 -7.038,-3.6779 -7.8631,-3.7275 -3.15,-0.1884 -8.1055,14.6462 -10.9593,32.8104 -1.6334,10.3965 -4.382,19.3732 -6.108,19.9485 -1.7315,0.5772 -4.8489,-3.0491 -6.9552,-8.0899 z m -43.1945,-8.2307 c -4.1994,-2.1942 -13.6223,-10.1652 -20.9399,-17.7137 -14.7521,-15.2177 -18.5089,-16.7365 -18.5089,-7.4815 0,8.0417 -5.0866,19.2078 -8.75,19.2078 -9.8626,0 -29.658,-26.7344 -34.7399,-46.9172 l -2.9911,-11.8781 -5.3917,4.9753 c -2.9656,2.7366 -9.6866,6.7448 -14.9359,8.9071 -5.2493,2.1626 -9.544,5.0336 -9.544,6.3806 0,2.9105 14.6421,15.6265 17.9935,15.6265 3.8794,0 22.7278,8.7147 22.7278,10.5085 0,3.6875 -8.7408,4.6604 -18.4299,2.0515 -32.0274,-8.624 -50.4498,-40.1622 -33.4125,-57.1995 5.8593,-5.8593 8.3209,-6.5674 19.7245,-5.6738 7.1664,0.5614 15.034,1.9266 17.4837,3.0338 3.2712,1.4781 4.4539,0.8793 4.4539,-2.2545 0,-2.9691 1.7416,-4.0195 5.7264,-3.4534 5.02,0.7129 5.9085,2.7132 7.2019,16.2153 1.4693,15.3407 13.0937,41.8623 18.3483,41.8623 2.3933,0 1.3461,-13.4795 -2.2246,-28.6323 -2.1258,-9.0197 3.4877,-9.414 13.3426,-0.937 l 7.0473,6.0616 4.4231,-9.8793 c 4.0599,-9.0681 5.251,-9.8795 14.5016,-9.8795 8.1298,0 11.3526,1.5141 16.6676,7.8305 9.3234,11.0805 8.9007,22.8579 -1.1234,31.2928 l -7.7127,6.4895 12.6577,9.6436 c 6.9619,5.3037 12.723,11.0749 12.8026,12.8247 0.196,4.2949 -7.1033,3.8446 -16.398,-1.0116 z m -4.4023,-41.6677 c 0.4027,-2.127 -0.8535,-6.0352 -2.7914,-8.6852 -5.1278,-7.0126 -11.8944,-3.4409 -11.8944,6.2782 0,7.0943 0.6991,7.8036 6.9771,7.079 3.8375,-0.4429 7.3067,-2.5454 7.7087,-4.672 z m -102.3414,-24.0483 c 3.9494,-2.9875 4.1447,-3.753 0.9727,-3.8176 -2.1822,-0.044 -6.1907,1.6006 -8.9078,3.6557 -3.9495,2.9875 -4.1446,3.753 -0.9727,3.8177 2.1821,0.046 6.1903,-1.6007 8.9078,-3.6558 z m 754.4228,40.9232 c -21.15,-14.5101 -23.562,-41.1802 -6.899,-76.2704 5.188,-10.9212 11.915,-23.3461 14.952,-27.6109 6.098,-8.5631 24.7,-17.9973 33.46,-16.9696 3.09,0.3624 11.343,-1.9448 18.342,-5.1268 9.947,-4.5224 16.002,-5.5608 27.729,-4.7561 13.419,0.9211 15.905,2.0138 23.542,10.3473 7.521,8.207 8.539,10.9841 8.539,23.295 0,48.5824 -50.689,103.1714 -95.799,103.1714 -11.647,0 -16.986,-1.3598 -23.866,-6.0799 z m 52.06,-11.8954 c 28.133,-13.9762 54.27,-51.5442 56.549,-81.2831 0.837,-10.9227 0.07,-15.1554 -3.516,-19.2665 -7.337,-8.4204 -20.015,-11.7499 -32.249,-8.469 -14.757,3.9573 -15.313,4.6544 -9.04,11.3314 3.403,3.6231 4.972,7.6101 3.995,10.1554 -1.451,3.7829 -2.488,3.6716 -10.648,-1.1431 -4.971,-2.9336 -9.98,-5.3336 -11.129,-5.3336 -1.15,0 -10.221,7.5279 -20.159,16.7286 -9.937,9.2008 -19.183,16.0394 -20.545,15.1976 -2.513,-1.5529 -12.907,28.2514 -12.907,37.0078 0,9.0366 7.757,24.13 14.687,28.578 9.386,6.0235 28.836,4.5079 44.962,-3.5035 z m -30.381,-86.3732 c 2.534,-2.7996 3.324,-5.0902 1.757,-5.0902 -1.568,0 -4.076,2.2906 -5.574,5.0902 -1.499,2.7995 -2.289,5.0901 -1.757,5.0901 0.532,0 3.04,-2.2906 5.574,-5.0901 z m -838.3046,90.7145 c -5.4039,-6.5116 -18.4333,-52.5333 -17.6244,-62.2541 0.617,-7.4156 1.8421,-9.3722 5.8697,-9.3722 4.2765,0 5.3498,2.2378 6.7135,13.9979 0.8928,7.699 2.7825,16.8613 4.1991,20.3607 2.4265,5.9942 2.6779,6.0681 4.3416,1.2726 5.3402,-15.3922 7.2291,-18.8698 11.0437,-20.3335 2.6495,-1.0168 5.8501,0.4283 8.6746,3.9166 5.8408,7.2128 5.6947,12.5993 -0.3415,12.5993 -5.8586,0 -7.7156,4.1098 -11.4124,25.2546 -2.9339,16.7823 -6.1881,20.9148 -11.4639,14.5581 z m 874.8836,-133.1053 c -2.817,-3.3983 -3.246,-15.1017 -2.22,-60.4457 0.699,-30.9274 1.272,-82.2875 1.272,-114.1337 0,-42.5834 0.79,-57.9018 2.984,-57.9007 7.021,0 8.29,18.302 8.026,115.803 -0.189,70.0425 0.602,101.4095 2.687,106.5668 4.783,11.8258 -4.938,19.5343 -12.749,10.1103 z m -29.376,-170.3312 c -2.661,-6.9366 1.079,-37.3593 6.389,-51.9701 2.798,-7.6974 5.858,-18.0035 6.799,-22.9028 2.893,-15.0432 16.915,-59.2643 21.993,-69.3536 5.226,-10.3844 13.047,-12.7236 17.019,-5.0902 1.274,2.4497 7.041,18.4109 12.815,35.4697 10.439,30.8447 12.884,43.2947 7.895,40.2115 -3.487,-2.1559 -15.544,-26.7662 -22.736,-46.4126 -3.202,-8.7488 -6.162,-15.9069 -6.577,-15.9069 -1.398,0 -13.684,39.2537 -21.505,68.7174 -4.274,16.0977 -8.489,38.7171 -9.367,50.2655 -1.391,18.2997 -2.212,20.9969 -6.387,20.9969 -2.637,0 -5.488,-1.8111 -6.338,-4.0248 z m -90.914,-178.1194 c -5.447,-1.9964 -23.772,-5.94483 -40.721,-8.77446 -35.226,-5.88042 -51.896,-12.87737 -66.982,-28.11404 -35.8143,-36.17206 -33.6683,-91.32867 5.985,-153.82966 22.215,-35.01301 31.844,-57.02801 31.989,-73.13027 0.267,-29.67776 -22.421,-54.70054 -73.6038,-81.17887 -28.5885,-14.79001 -36.3733,-21.06365 -36.3733,-29.31508 0,-7.91624 6.2893,-11.5692 43.4349,-25.22996 38.1142,-14.01707 55.7602,-23.75686 71.4992,-39.4682 16.049,-16.02005 22.998,-30.46137 24.46,-50.83735 1.608,-22.40491 -4.983,-35.04483 -33.73,-64.68491 -29.237,-30.14452 -32.836,-37.32727 -32.628,-65.1153 0.201,-26.64833 6.864,-41.82621 26.8,-61.04315 18.15,-17.49416 31.553,-23.46392 55.831,-24.86932 25.262,-1.46241 35.215,2.07984 35.215,12.53354 0,7.36472 -6.141,10.53717 -8.235,4.25437 -0.625,-1.87727 -8.056,-3.46947 -19.104,-4.09377 -15.239,-0.86101 -20.26,-0.0255 -31.944,5.32508 -31.745,14.53347 -47.55,37.9727 -47.576,70.55821 -0.02,23.27738 1.625,26.24138 31.754,57.26447 27.584,28.40419 35.497,43.54211 35.426,67.78127 -0.07,23.43924 -10.671,44.72125 -32.352,64.9351 -19.589,18.26507 -32.029,25.08463 -73.6693,40.38672 -17.8429,6.55767 -31.7895,12.97969 -30.9915,14.27131 0.7981,1.29164 8.5258,5.9186 17.1734,10.2819 37.7804,19.065 74.9474,50.02216 84.7994,70.63101 13.112,27.42815 5.444,54.30885 -32.731,114.74831 -15.679,24.82275 -22.6226,45.72402 -24.203,72.85719 -1.2217,20.98679 -0.74,24.56493 4.9916,37.08447 13.7804,30.09973 34.6254,41.75724 90.2834,50.48919 18.849,2.95688 39.189,11.45212 40.916,17.089 1.233,4.0199 -3.159,3.7942 -15.714,-0.8068 z m 80.702,-12.05481 c -18.922,-7.11429 -28.804,-23.27152 -28.804,-47.0915 0,-17.65578 6.851,-32.52418 20.79,-45.11727 12.89,-11.64581 24.198,-16.45755 38.673,-16.45755 9.717,0 12.361,1.24123 19.17,8.99637 7.97,9.07756 9.837,14.95646 5.584,17.58503 -3.86,2.38576 -9.558,-1.05545 -12.524,-7.56298 -5.907,-12.96493 -26.214,-10.16865 -43.523,5.99266 -5.506,5.14107 -11.234,12.57172 -12.728,16.51227 -3.956,10.43002 -3.324,33.90795 1.143,42.54775 7.25,14.01757 26.787,19.21133 42.23,11.22562 24.405,-12.62059 37.898,-36.20667 37.898,-66.25015 0,-28.6279 -7.712,-36.34384 -33.3,-33.31341 -14.578,1.72659 -16.139,-1.06691 -3.856,-6.89617 27.306,-12.95703 49.881,5.07847 49.881,39.84945 0,9.09741 -1.849,22.2662 -4.109,29.26443 -11.228,34.76615 -50.219,60.60641 -76.525,50.71545 z m 33.472,-152.56908 c 5.853,-48.52183 5.363,-113.25994 -1.339,-176.93013 -2.173,-20.64244 -4.102,-29.28505 -6.885,-30.84239 -4.268,-2.38831 -2.194,-7.92362 2.967,-7.92362 7.817,0 11.956,9.71282 14.244,33.42234 8.128,84.25512 9.613,134.63232 5.014,170.07876 -3.256,25.08794 -4.397,28.10184 -10.639,28.10184 -4.986,0 -5.174,-0.88824 -3.362,-15.9068 z m -469.6193,-72.70092 c -8.7568,-8.75688 -10.0518,-11.54197 -10.0518,-21.6195 0,-9.46518 1.2189,-12.52615 6.7061,-16.84236 3.6881,-2.90116 9.5479,-5.27496 13.022,-5.27496 6.2812,0 6.3057,-0.0941 4.4878,-17.17933 -1.0054,-9.44864 -2.3285,-18.0009 -2.9402,-19.00468 -0.6118,-1.00404 -4.5722,-1.13358 -8.8011,-0.28785 -9.5998,1.92002 -19.3613,-3.05461 -24.1446,-12.30473 -5.2869,-10.22336 -4.4304,-16.37356 3.1056,-22.30107 9.4222,-7.41155 15.0774,-6.60985 25.6242,3.63285 5.0446,4.8993 10.7142,8.90781 12.5991,8.90781 4.3722,0 3.8078,-2.79807 5.6479,27.99596 l 1.597,26.72341 19.7244,0.74343 c 11.6197,0.43775 19.7245,-0.27615 19.7245,-1.73728 0,-1.36442 2.5726,-3.29717 5.7168,-4.29509 3.1439,-0.99793 6.9789,-3.54072 8.5216,-5.6506 3.1894,-4.36177 8.6678,-2.11064 8.6678,3.56184 0,4.03932 -2.7224,7.84244 -12.5582,17.54609 -5.4444,5.37141 -5.8298,6.91272 -3.1814,12.7257 4.1781,9.16943 3.7923,11.46459 -1.9263,11.46459 -5.7784,0 -8.0007,-3.00015 -10.2048,-13.77579 -1.0681,-5.22303 -3.0653,-7.78644 -5.9565,-7.64545 -2.3924,0.11708 -9.0433,0.40315 -14.7798,0.63628 l -10.4303,0.42426 1.5818,14.63425 c 2.0457,18.92528 -1.807,27.0492 -13.3576,28.16674 -6.8693,0.66478 -10.1173,-0.9679 -18.394,-9.24452 z m 20.4893,-16.86324 c 0,-7.61617 -1.0137,-14.47416 -2.2527,-15.23999 -1.2388,-0.76581 -5.8201,-0.14761 -10.1803,1.3713 -6.0351,2.10377 -7.9277,4.28924 -7.9277,9.15494 0,7.44641 9.4555,18.45391 15.9068,18.51754 3.7016,0.0357 4.4539,-2.29541 4.4539,-13.80379 z m -19.2149,-77.57019 c 1.5492,-2.50665 -5.1365,-10.38548 -8.8126,-10.38548 -4.418,0 -5.0118,4.77357 -1.0827,8.70268 4.5554,4.55544 7.7809,5.10391 9.8953,1.6828 z m 93.9962,95.37562 c -0.7757,-2.02259 2.298,-9.0684 6.8313,-15.65712 7.8508,-11.41115 8.0195,-12.1421 3.5499,-15.41051 -2.5808,-1.88692 -5.6187,-3.43103 -6.7509,-3.43103 -3.4068,0 -2.3148,-7.69684 1.2887,-9.07959 1.8408,-0.70652 6.1305,-0.25477 9.5328,1.00378 5.5337,2.04676 6.9946,1.05265 13.8472,-9.42039 8.5023,-12.99394 15.2252,-16.10404 17.7322,-8.20434 1.1177,3.52138 -1.1657,9.27938 -7.2818,18.36077 -8.1279,12.06855 -8.5872,13.69205 -5.2286,18.48675 5.6612,8.08293 4.472,9.92863 -5.2263,8.10916 -5.1995,-0.97554 -8.9081,-0.64493 -8.9081,0.79406 0,3.41806 -12.6389,18.12611 -15.5762,18.12611 -1.3189,0 -3.0334,-1.65482 -3.8102,-3.67765 z m 329.9677,-82.75173 c -3.238,-2.04777 -2.982,-5.1879 1.915,-23.50311 3.108,-11.62673 10.261,-41.75471 15.897,-66.95107 19.182,-85.76841 18.633,-83.89956 24.867,-84.80307 4.523,-0.65536 6.541,1.33948 10.3,10.18035 2.572,6.04764 5.495,14.43141 6.496,18.6308 1.002,4.19939 6.844,17.94287 12.983,30.54105 12.46,25.57024 14.527,33.08613 9.102,33.08613 -4.037,0 -13.409,-15.27993 -28.099,-45.81157 -6.235,-12.95932 -10.338,-18.97286 -11.287,-16.54306 -0.82,2.09969 -5.456,23.28754 -10.302,47.08411 -9.781,48.04208 -20.588,94.01043 -23.026,97.95761 -1.955,3.16253 -4.005,3.19306 -8.846,0.13234 z m -485.1195,-41.29996 c -9.2306,-7.09112 -11.1643,-9.766 -11.2137,-15.51128 -0.064,-7.4851 7.6821,-8.42322 13.1271,-1.58992 12.3464,15.49475 11.0522,27.06141 -1.9134,17.1012 z m 168.1607,-26.8046 c 0.8639,-8.00506 4.3713,-21.55205 7.7925,-30.10431 7.2506,-18.12357 7.369,-18.96828 2.6758,-18.96828 -4.2987,0 -7.0191,-6.21841 -5.0106,-11.45289 1.7123,-4.46179 4.5334,-4.78731 11.0887,-1.27916 3.7431,2.00375 5.7192,1.29799 9.3763,-3.34958 12.2142,-15.52097 38.0587,-42.38258 40.8116,-42.41694 1.7012,-0.0255 4.3579,2.32697 5.9048,5.21793 2.497,4.66515 0.5041,7.57495 -17.7255,25.8782 -11.2966,11.34218 -20.54,21.8824 -20.54,23.42269 0,1.54029 4.5815,8.34433 10.1811,15.12011 9.7039,11.74329 12.8267,19.40069 7.9122,19.40069 -1.2473,0 -7.8116,-4.58115 -14.5882,-10.18035 -6.7754,-5.59919 -13.0591,-10.18035 -13.9645,-10.18035 -0.9042,0 -4.0058,6.58542 -6.8906,14.63425 -5.0822,14.17766 -5.8567,16.8584 -9.1852,31.81359 -0.8763,3.93776 -3.2749,6.99899 -5.4835,6.99899 -3.2647,0 -3.6615,-2.4555 -2.3549,-14.55459 z m -233.0541,2.11115 c -3.8395,-5.19325 -8.4748,-7.83886 -15.7811,-9.00731 -7.5541,-1.2079 -13.3169,-4.62647 -21.3631,-12.6725 -9.6892,-9.68915 -11.0185,-12.38338 -11.0185,-22.33009 0,-14.26929 10.4689,-25.90058 22.992,-25.54453 10.7499,0.30567 15.1843,4.64657 15.1843,14.86459 0,8.96251 -5.7234,12.15915 -8.5555,4.77865 -1.758,-4.5809 -9.5918,-5.01306 -13.8413,-0.76353 -5.3594,5.35944 -3.3104,12.64628 6.0349,21.45992 11.1429,10.50918 18.907,11.36636 18.907,2.08799 0,-8.61207 11.3816,-18.96675 20.8481,-18.96675 8.4395,0 19.8733,9.92813 19.8733,17.2562 0,5.76106 -8.9032,14.52506 -18.4179,18.12941 -6.0613,2.29644 -6.6601,3.43994 -4.6162,8.81568 4.3101,11.33684 -2.3534,12.56739 -10.246,1.89227 z m 14.072,-23.59626 c 8.5601,-3.9001 8.2767,-7.77194 -0.4944,-6.7595 -4.2084,0.4856 -7.3126,2.57282 -7.8221,5.25917 -0.9969,5.25763 -0.2316,5.39558 8.3165,1.50033 z m 181.5034,-18.0434 c -0.5194,-3.14955 0.6307,-8.98238 2.5559,-12.96187 1.9247,-3.9795 2.811,-7.92439 1.969,-8.7663 -0.8416,-0.84192 -8.3979,-0.11199 -16.7916,1.62147 -8.3938,1.73371 -16.379,2.46136 -17.7451,1.61715 -7.3058,-4.51524 1.3687,-22.00533 14.7994,-29.84013 6.8765,-4.01131 7.9004,-4.05153 10.9064,-0.42961 2.6095,3.14446 2.6668,5.03952 0.2678,8.88083 -2.6833,4.29636 -2.3281,4.88351 2.9545,4.88351 9.9842,0 21.4482,5.11893 22.7682,10.16636 1.4161,5.41593 -13.1081,30.38299 -17.7358,30.48734 -1.6525,0.0382 -3.4295,-2.5092 -3.9487,-5.65875 z M 9542.89,542.69524 c 0,-8.4787 1.2962,-20.56405 2.8807,-26.85627 2.3917,-9.49878 3.7958,-11.30986 8.2716,-10.6713 3.7459,0.53472 5.6366,2.90497 6.196,7.76837 0.7029,6.10974 1.9084,6.99899 9.4856,6.99899 10.3376,0 17.2564,8.45351 15.9814,19.52642 l -0.8214,7.12981 -6.7679,-7.32629 c -8.6428,-9.35625 -13.5503,-7.54924 -19.9324,7.33953 -3.5414,8.2616 -6.3934,11.50684 -10.1131,11.50684 -4.6405,0 -5.1805,-1.60697 -5.1805,-15.4161 z m -25.1577,-0.49069 c -1.1693,-3.14955 -2.8816,-9.86629 -3.8055,-14.92618 l -1.6794,-9.19972 -14.2433,0.29192 c -12.8168,0.26265 -14.7875,-0.42834 -19.6738,-6.89845 -11.2045,-14.83609 -2.4917,-50.07409 12.3808,-50.07409 8.3907,0 9.0926,4.94433 2.1616,15.22496 -6.9817,10.35622 -8.1904,27.35104 -2.1112,29.68386 6.2362,2.39289 18.9637,-4.26073 20.5969,-10.76801 1.8543,-7.38813 6.8748,-11.74838 11.4844,-9.97444 5.066,1.94953 5.5048,62.36659 0.453,62.36659 -1.8907,0 -4.3943,-2.5769 -5.5635,-5.72644 z m 234.8189,-15.27053 c -17.2577,-19.71169 -15.6108,-47.69569 3.3359,-56.68647 12.0566,-5.72136 24.4593,-3.22972 31.2259,6.27313 12.1355,17.04242 -0.4126,31.75378 -22.0002,25.79319 -5.2551,-1.45095 -10.4133,-1.77978 -11.4624,-0.7307 -1.049,1.04908 0.9206,8.01168 4.3774,15.47261 3.4567,7.46066 6.2848,14.02394 6.2848,14.58488 0,3.18339 -7.4714,0.19342 -11.7614,-4.70664 z m 25.9353,-37.82458 c 2.3771,-3.84613 -3.8963,-7.54313 -11.4326,-6.73735 -7.4838,0.79992 -9.8938,6.1329 -3.5183,7.78543 8.3341,2.16052 13.1776,1.82101 14.9509,-1.04808 z m -78.0462,-5.5997 c -2.0905,-4.58854 -1.4606,-9.2122 2.8614,-20.99697 3.0483,-8.31199 6.1319,-17.69624 6.8527,-20.85368 1.2759,-5.58977 -2.8623,-13.3472 -7.1199,-13.3472 -4.1816,0 -15.3731,13.36858 -19.2014,22.93658 -4.2735,10.68046 -10.4713,14.86357 -12.8474,8.67137 -4.6225,-12.04615 9.48,-71.0568 16.9814,-71.0568 2.9559,0 3.7525,3.15744 3.5516,14.07917 l -0.2588,14.07917 8.3581,-0.97578 c 12.1681,-1.42068 29.9134,12.9555 28.4339,23.03532 -0.8037,5.47652 0,7.04658 3.5565,7.04658 6.9413,0 12.7937,10.88177 11.8724,22.07507 -0.9611,11.67635 -7.9745,13.75518 -9.242,2.73953 -1.1768,-10.22768 -5.8031,-8.62377 -16.5163,5.72645 -10.6405,14.25249 -13.4066,15.34739 -17.2822,6.84119 z m -273.7457,-5.44343 c -4.4161,-1.92128 -10.6441,-7.03029 -13.8403,-11.35337 -4.8246,-6.52561 -7.5662,-7.86534 -16.1493,-7.89105 -17.814,-0.0534 -65.0572,-23.25904 -65.0572,-31.95586 0,-5.21743 10.873,-4.55596 18.1085,1.10151 7.4424,5.81909 34.1026,18.15996 39.2313,18.15996 5.5217,0 4.8481,-2.47025 -7.7107,-28.27363 -11.8855,-24.42036 -15.0733,-43.44056 -8.3987,-50.11505 10.1951,-10.19511 40.2123,4.84254 40.2123,20.14513 0,10.5364 -3.9525,10.96296 -9.7967,1.05749 -5.5596,-9.42243 -16.5538,-14.19472 -21.4414,-9.30714 -3.2498,3.24983 -0.8944,11.2727 11.2376,38.27735 l 7.3334,16.32291 5.6971,-5.1795 c 18.5199,-16.83652 62.962,1.34431 62.962,25.7573 0,10.36818 -6.164,18.95607 -16.794,23.39749 -10.4507,4.36662 -15.2894,4.33963 -25.5939,-0.14252 z m 23.6889,-12.77277 c 12.3004,-8.61563 8.1701,-20.89797 -8.1754,-24.31169 -5.5162,-1.15191 -12.4355,-2.8449 -15.3764,-3.76215 -6.8462,-2.13533 -13.7608,4.46536 -11.9464,11.40428 1.8984,7.25859 17.6532,20.40931 24.451,20.40931 3.1392,0 8.1103,-1.68281 11.0472,-3.73975 z m 185.8664,-23.50489 c -0.7009,-1.13436 -2.0788,-6.34873 -3.0615,-11.58728 -1.2515,-6.67093 -3.1142,-9.52474 -6.2174,-9.52474 -8.4401,0 -21.0743,-11.23656 -25.7555,-22.90578 -9.4855,-23.64615 -2.9711,-47.12306 12.5743,-45.31578 8.4146,0.97807 10.7782,9.43412 3.1918,11.41802 -10.6839,2.79374 -8.9038,33.01283 2.2974,39.00754 7.1366,3.8194 10.7306,3.10932 18.625,-3.6802 11.2994,-9.71766 18.5543,-3.72092 11.4831,9.49139 -1.6176,3.02305 -3.6219,11.73132 -4.4539,19.35157 -1.3741,12.58952 -5.4297,19.00951 -8.6833,13.74526 z m 556.4841,-10.40738 c -26.632,-9.49699 -39.023,-24.4672 -39.023,-47.14468 0,-22.63092 28.818,-49.05401 67.071,-61.49745 34.768,-11.31012 57.305,-7.09367 57.557,10.76825 0.08,5.17111 1.326,5.72645 12.922,5.72645 43.603,0 28.65,56.90688 -22.498,85.62233 -15.659,8.79124 -18.955,9.64894 -39.972,10.39847 -17.408,0.62049 -26.062,-0.30898 -36.057,-3.87337 z m 67.254,-15.88822 c 25.154,-12.56967 46.428,-37.32064 46.428,-54.01565 0,-8.91748 -4.78,-12.06321 -18.331,-12.06321 -11.056,0 -13.112,0.98469 -21.532,10.30404 -6.222,6.8865 -11.064,10.05183 -14.601,9.54408 -8.506,-1.22114 -7.351,-7.59429 3.559,-19.64375 11.816,-13.05018 12.964,-19.4404 3.806,-21.1909 -24.273,-4.63996 -77.581,21.68872 -89.129,44.02135 -10.275,19.86899 1.966,40.07444 29.318,48.39484 3.508,1.06716 15.072,2.03886 25.697,2.15925 16.678,0.18833 21.432,-0.83759 34.785,-7.51005 z m -693.2961,-27.83256 c -20.2558,-14.89614 -29.6149,-35.76636 -23.0249,-51.34433 5.4503,-12.88399 12.8331,-18.19127 25.6957,-18.47149 9.4827,-0.20615 12.4198,1.02491 19.0904,8.0043 8.5714,8.96787 10.2634,19.33783 4.4522,27.28538 -4.8759,6.66787 -10.1696,2.56798 -8.3612,-6.47548 3.0706,-15.35247 -17.0034,-20.5956 -27.0576,-7.06693 -4.4575,5.99774 -4.6493,7.76709 -1.784,16.44915 1.8153,5.50044 9.1307,15.64821 16.8324,23.3499 7.492,7.49197 13.6216,14.11964 13.6216,14.72817 0,3.56541 -10.6309,0.0382 -19.4646,-6.45867 z"
       id="path839"
       sodipodi:nodetypes="ssssssssssscsccsscsssscssssssscsscscsccssscsscccsssssssssssssssscsssssscccsccccscscssssssssssccsssssssssscssssssssssssssssssscsssssscssssssssccsssssssssssssssssssssssssssssscsscssssssssssssssssssssssssssssscssssssssssccsssssssssssssscscssssssssssssscssssscsssssssssssssssssssssssssscssssccsscsssscssccsssssssssssssssssssssscsscsssssscssssssssssssscscsssssssssssscsscssccsscsssscsscscssssssssssssssssssssssssssscsssssssssscsssssssccsssssssssssssssssssssssssssssssssssssssssccssscscsssssssssssssssssssscssssssscssssssssssssssssssssssssssssssssssssssssssssssssssssssssssssssssscssscsssscsssssssscssccssssscssssssssssssssscsssscssssssssssscssssssssssssscssssssssssssssssssssssssssssscssssscssssssscssssssssssssscsssssccssssscsssssssssssssssscssssssssssscssssssssssssssscssssssssssscssssscssssssssssssssssssssssssssssssssssssssssssssscsssssssssssssssssssssssssssssssssssssssssssssssscsssssscssssssssssssssssssssssssssssscssssssssssssssssssscssssssssssssssssssssssssscssssssssssssssscsssssssssc" />
  </g>
</svg>
